<svg width="157" height="157" viewBox="0 0 157 157" fill="none" xmlns="http://www.w3.org/2000/svg">
<path d="M112.83 56.1391C113.39 56.6993 113.835 57.3645 114.139 58.0966C114.442 58.8288 114.599 59.6137 114.599 60.4062C114.599 61.1988 114.442 61.9837 114.139 62.7159C113.835 63.448 113.39 64.1132 112.83 64.6734L70.6109 106.892C70.0508 107.453 69.3856 107.898 68.6534 108.201C67.9212 108.505 67.1364 108.661 66.3438 108.661C65.5512 108.661 64.7664 108.505 64.0342 108.201C63.302 107.898 62.6368 107.453 62.0767 106.892L43.9829 88.7984C42.8512 87.6667 42.2154 86.1317 42.2154 84.5312C42.2154 82.9308 42.8512 81.3958 43.9829 80.2641C45.1146 79.1324 46.6496 78.4966 48.25 78.4966C49.8505 78.4966 51.3854 79.1324 52.5171 80.2641L66.3438 94.0983L104.295 56.1391C104.856 55.5784 105.521 55.1335 106.253 54.83C106.985 54.5265 107.77 54.3703 108.563 54.3703C109.355 54.3703 110.14 54.5265 110.872 54.83C111.604 55.1335 112.27 55.5784 112.83 56.1391ZM156.813 78.5C156.813 94.0073 152.214 109.166 143.599 122.06C134.983 134.954 122.738 145.004 108.411 150.938C94.0842 156.872 78.3193 158.425 63.11 155.4C47.9007 152.374 33.93 144.907 22.9647 133.942C11.9994 122.976 4.53191 109.006 1.50659 93.7963C-1.51873 78.587 0.0339722 62.8221 5.96836 48.4952C11.9027 34.1684 21.9523 21.923 34.8461 13.3076C47.7399 4.6922 62.899 0.09375 78.4063 0.09375C99.1942 0.115702 119.124 8.38339 133.824 23.0827C148.523 37.7819 156.791 57.7121 156.813 78.5ZM144.75 78.5C144.75 65.3784 140.859 52.5516 133.569 41.6414C126.279 30.7312 115.918 22.2278 103.795 17.2064C91.6722 12.185 78.3327 10.8711 65.4633 13.431C52.5938 15.9909 40.7725 22.3095 31.4942 31.5879C22.2158 40.8662 15.8972 52.6876 13.3373 65.557C10.7774 78.4264 12.0913 91.7659 17.1127 103.889C22.1341 116.011 30.6375 126.373 41.5477 133.663C52.4578 140.953 65.2847 144.844 78.4063 144.844C95.9956 144.824 112.859 137.828 125.296 125.39C137.734 112.953 144.73 96.0893 144.75 78.5Z" fill="#1D7D74"/>
</svg>
