<svg width="40" height="40" viewBox="0 0 40 40" fill="none" xmlns="http://www.w3.org/2000/svg">
<rect width="40" height="40" rx="4" fill="white"/>
<path d="M25 10.9997C25.2547 10.6987 25.5697 10.4537 25.925 10.2803C26.2803 10.107 26.6681 10.009 27.0636 9.99267C27.4592 9.97635 27.8538 10.042 28.2224 10.1855C28.5909 10.3291 28.9254 10.5472 29.2043 10.8262C29.4833 11.1051 29.7006 11.4387 29.8425 11.8057C29.9845 12.1727 30.0478 12.565 30.0286 12.9576C30.0094 13.3503 29.908 13.7346 29.7309 14.0862C29.5538 14.4378 29.3049 14.7489 29 14.9997L15.5 28.4997L10 29.9997L11.5 24.4997L25 10.9997Z" stroke="#131313" stroke-width="2" stroke-linecap="round" stroke-linejoin="round"/>
<path d="M23 13L27 17" stroke="#131313" stroke-width="2" stroke-linecap="round" stroke-linejoin="round"/>
</svg>
