<svg width="58" height="28" viewBox="0 0 58 28" fill="none" xmlns="http://www.w3.org/2000/svg">
<path d="M2.03906 0.123047H3.73911V12.0272H2.03906V0.123047ZM3.01942 10.4372H13.9196V12.0272H3.01942V10.4372ZM7.56989 0.123047H9.26994V12.0272H7.56989V0.123047ZM13.0979 0.123047H14.7979V12.0272H13.0979V0.123047Z" fill="#131313"/>
<path d="M15.7402 0.122775H17.4403V12.027H15.7402V0.122775ZM16.5619 5.32038H20.3389V6.9104H16.5619V5.32038ZM18.8457 6.78186L20.3304 5.92118L24.9885 12.0214H22.6396L18.8457 6.78186ZM18.8457 5.48805L22.3478 0.117188H24.4728L19.7014 6.95232L18.8457 5.48805Z" fill="#131313"/>
<path d="M27.6343 4.33118C27.6243 3.84226 27.731 3.35788 27.946 2.9172C28.1394 2.52736 28.4423 2.2005 28.8187 1.97549C29.2226 1.75904 29.6751 1.64566 30.1348 1.64566C30.5945 1.64566 31.047 1.75904 31.4509 1.97549C31.8295 2.19942 32.1346 2.52643 32.3293 2.9172C32.5442 3.35788 32.651 3.84226 32.641 4.33118V4.84255H34.375V4.38706C34.3923 3.58864 34.2113 2.79816 33.848 2.08447C33.5147 1.43842 32.9965 0.903049 32.3576 0.544749C31.6723 0.187016 30.9087 0 30.1334 0C29.358 0 28.5944 0.187016 27.9091 0.544749C27.2702 0.903049 26.752 1.43842 26.4188 2.08447C26.0554 2.79816 25.8745 3.58864 25.8918 4.38706V4.84255H27.6258L27.6343 4.33118Z" fill="#131313"/>
<path d="M27.6343 4.84253H25.9002V20.2928H27.6343V4.84253Z" fill="#131313"/>
<path d="M34.3805 4.84253H32.6465V20.2928H34.3805V4.84253Z" fill="#131313"/>
<path d="M32.6488 21.2038C32.6566 21.6872 32.5499 22.1656 32.3371 22.601C32.1436 22.9926 31.8383 23.32 31.4588 23.5428C31.0554 23.7609 30.6027 23.8753 30.1426 23.8753C29.6826 23.8753 29.2299 23.7609 28.8265 23.5428C28.4459 23.3204 28.1396 22.993 27.9453 22.601C27.7326 22.1656 27.6258 21.6872 27.6336 21.2038V20.2957H25.8996V21.134C25.8821 21.9333 26.063 22.7248 26.4266 23.4394C26.7607 24.0848 27.2787 24.62 27.917 24.9791C28.6023 25.3368 29.3659 25.5238 30.1412 25.5238C30.9166 25.5238 31.6802 25.3368 32.3655 24.9791C33.0037 24.62 33.5217 24.0848 33.8558 23.4394C34.2194 22.7248 34.4003 21.9333 34.3828 21.134V20.2957H32.6488V21.2038Z" fill="#131313"/>
<path d="M35.3438 10.5019C35.8052 10.5213 36.2613 10.406 36.6433 10.1733C37.0037 9.90877 37.2598 9.54762 37.3739 9.14297C37.5507 8.55217 37.6314 7.94159 37.6133 7.33015V0.223633H39.4788V7.2299C39.5114 8.17191 39.3728 9.11241 39.0684 10.0146C38.8563 10.6532 38.4064 11.2074 37.7937 11.5851C37.1126 11.9477 36.328 12.1239 35.5365 12.092H35.3531L35.3438 10.5019ZM38.7637 0.223633H45.1123V1.80533H38.7699L38.7637 0.223633ZM44.1268 0.223633H45.9922V12.0864H44.1268V0.223633Z" fill="#131313"/>
<path d="M51.6535 0.123047H53.0986L57.547 12.0272H55.7223L52.3761 2.42285L49.0298 12.0272H47.2051L51.6535 0.123047ZM49.2536 7.82724H55.6062V9.41446H49.2536V7.82724Z" fill="#131313"/>
<path d="M19.8838 18.7307L22.9127 13.6309H24.8139L20.8273 20.0748L17.5887 25.5351H15.6875L19.8838 18.7307ZM19.9575 20.3039L19.6996 19.8931L15.781 13.6309H17.6822L20.5978 18.4764L20.8812 18.9179L25.0066 25.5351H23.094L19.9575 20.3039Z" fill="#131313"/>
<path d="M35.3524 23.945H45.8191V25.5351H35.3524V23.945ZM35.3524 23.945H37.0525V27.9969H35.3524V23.945ZM35.3524 23.945H35.4261C35.7472 23.9564 36.0658 23.885 36.3505 23.738C36.6352 23.591 36.8762 23.3735 37.0497 23.1067C37.4274 22.5478 37.6163 21.7654 37.6163 20.7594V13.6309H39.3164V20.8963C39.3374 21.6642 39.1875 22.4273 38.8772 23.1319C38.6081 23.7203 38.1633 24.2136 37.6022 24.5458C36.9886 24.8845 36.2933 25.0525 35.5904 25.0321H35.3496L35.3524 23.945ZM38.6789 13.6309H44.1502V15.2181H38.6874L38.6789 13.6309ZM43.2548 13.6309H44.9549V25.5351H43.2548V13.6309ZM44.8727 23.945H46.5728V27.9969H44.8727V23.945Z" fill="#131313"/>
<path d="M55.6278 25.5305V16.1951L55.8547 16.407L48.94 25.5305H47.3516V13.6641H49.2642V23.1416L49.0373 22.9297L55.9779 13.6696H57.5469V25.5361L55.6278 25.5305Z" fill="#131313"/>
</svg>
