<svg width="136" height="30" viewBox="0 0 136 30" fill="none" xmlns="http://www.w3.org/2000/svg">
<g id="Logo/Facebook">
<path id="Vector" d="M9.46924 29.5376H4.38231V14.9776H0.916992V10.2372H4.38217V6.86399C4.38217 2.86678 5.91483 0 10.988 0C12.061 0 13.7455 0.248314 13.7455 0.248314V4.65008H11.9762C10.1734 4.65008 9.46951 5.2797 9.46951 7.02038V10.2372H13.678L13.3032 14.9776H9.46938L9.46924 29.5376ZM21.1413 9.85833C21.0672 9.85833 20.991 9.86143 20.9155 9.8636C16.1986 9.8636 14.0405 13.9374 14.0405 19.7202C14.0405 27.005 16.8398 29.9206 20.9523 29.9206C23.3053 29.9206 24.8511 28.7835 25.7907 26.6616V29.5396H30.6291V10.2392H25.7907V13.2073C25.0235 11.2977 23.4345 9.88096 21.1413 9.85833ZM22.3716 14.419C24.3527 14.419 25.5418 16.0056 25.5418 18.7043L25.5464 21.4607C25.5464 23.2797 24.5643 25.4077 22.3716 25.4077C19.0006 25.4077 19.0907 21.2286 19.0907 19.8366C19.0907 15.1545 20.8867 14.419 22.3716 14.419ZM32.5831 19.8904C32.5831 17.5451 32.4854 9.87088 41.1934 9.87088C44.689 9.87088 46.1486 11.147 46.1486 11.147L44.9755 15.3248C44.9755 15.3248 43.5177 14.4032 41.6183 14.4032C39.1854 14.4032 37.6331 16.0225 37.6331 18.8716L37.6358 20.9145C37.6358 23.6522 39.1336 25.4797 41.6233 25.4797C43.3537 25.4797 44.9486 24.5493 44.9486 24.5493L46.1188 28.6399C46.1188 28.6399 44.7842 29.924 41.2179 29.924C32.9264 29.924 32.5833 23.0388 32.5833 19.8904H32.5831ZM74.5179 9.8636C79.235 9.8636 81.4271 13.9374 81.4271 19.7202C81.4271 27.005 78.6276 29.9206 74.5151 29.9206C72.1622 29.9206 70.4228 28.7837 69.4832 26.6616V29.5396L64.7057 29.5375V0.58684L69.7782 0.0788964V12.9458C70.5103 10.6947 72.9163 9.8636 74.5181 9.8636H74.5179ZM73.0958 14.419C71.1147 14.419 69.7782 16.0056 69.7782 18.7043L69.7735 21.4607C69.7705 23.2797 70.699 25.4077 73.0958 25.4077C76.4668 25.4077 76.3767 21.2286 76.3767 19.8366C76.3767 15.1545 74.5808 14.419 73.0958 14.419ZM54.9498 9.87956C49.5998 9.87956 46.7753 13.2287 46.7753 19.1805V20.2863C46.7753 28.0112 50.7417 30 55.4705 30C60.0668 30 62.1473 28.5239 62.1473 28.5239L61.1981 24.593C61.1981 24.593 58.7509 25.7886 56.0787 25.7886C53.3085 25.7886 52.1171 24.9779 51.8117 21.9213H62.5529V18.7677C62.5529 12.3116 59.3829 9.87941 54.9497 9.87941L54.9498 9.87956ZM55.0787 13.8157C56.9307 13.8157 58.1307 15.1196 58.0648 18.1435H51.821C51.9293 14.9609 53.2234 13.8159 55.0787 13.8159V13.8157ZM91.5414 9.85306C86.0473 9.85306 83.1549 13.4079 83.1549 19.7783C83.1549 28.5189 88.1408 29.9259 91.5506 29.9259C96.5424 29.9259 99.8633 26.8403 99.8633 19.8577C99.8633 12.5901 96.1293 9.85306 91.5414 9.85306ZM91.4723 14.4348C93.8881 14.4348 94.8454 16.5107 94.8454 18.8738V20.9054C94.8454 23.768 93.5059 25.4237 91.4631 25.4237C89.5526 25.4237 88.2099 23.8749 88.2099 20.9054V18.8738C88.2099 15.7067 89.8076 14.4348 91.4723 14.4348ZM109.969 9.85306C104.475 9.85306 101.582 13.4079 101.582 19.7783C101.582 28.5189 106.568 29.9259 109.978 29.9259C114.969 29.9259 118.291 26.8403 118.291 19.8577C118.291 12.5901 114.556 9.85306 109.969 9.85306ZM109.9 14.4348C112.315 14.4348 113.272 16.5107 113.272 18.8738V20.9054C113.272 23.768 111.933 25.4237 109.89 25.4237C107.98 25.4237 106.637 23.8749 106.637 20.9054V18.8738C106.637 15.7067 108.235 14.4348 109.9 14.4348ZM120.207 29.5376V0.58684L125.295 0.0788964V19.4835L130.342 10.2372H135.714L130.449 19.8137L135.917 29.5376H130.529L125.295 20.0958V29.5376H120.207Z" fill="#4D4D4D"/>
</g>
</svg>
