<svg width="215" height="69" viewBox="0 0 215 69" fill="none" xmlns="http://www.w3.org/2000/svg">
<g id="Logo/Google">
<path id="Vector" d="M26.7383 0H28.6494C35.2841 0.143062 41.8106 2.78972 46.4982 7.47501C44.7674 9.22753 43.0005 10.9085 41.3058 12.661C38.6735 10.3005 35.5004 8.47645 32.0388 7.83267C26.9186 6.7597 21.4017 7.72537 17.1107 10.6224C12.4232 13.6625 9.25005 18.8127 8.56494 24.3206C7.80772 29.757 9.35822 35.4795 12.928 39.6998C16.3535 43.8129 21.582 46.388 26.9907 46.5668C32.0388 46.8529 37.3033 45.315 40.9813 41.81C43.8659 39.3422 45.2001 35.5868 45.6328 31.9387C39.6471 31.9387 33.6615 31.9745 27.6758 31.9387V24.571H52.8805C54.1786 32.4752 52.3035 41.3808 46.2458 47.0318C42.2072 51.0375 36.6182 53.3981 30.921 53.863C25.4041 54.3995 19.7069 53.3623 14.803 50.7156C8.92553 47.604 4.23796 42.3465 1.93023 36.159C-0.233258 30.4723 -0.269316 24.0345 1.74994 18.312C3.58891 13.0902 7.12262 8.47645 11.6659 5.25754C16.029 2.07441 21.3295 0.32189 26.7383 0Z" fill="#131313"/>
<path id="Vector_2" d="M170.271 2H178.271V52.9911C175.616 52.9911 172.925 53.0268 170.271 52.9554C170.308 35.994 170.271 18.997 170.271 2Z" fill="#131313"/>
<path id="Vector_3" d="M70.3601 19.3103C75.1025 18.4357 80.2401 19.4153 84.1562 22.1791C87.713 24.628 90.192 28.4762 90.9465 32.6744C91.9166 37.5372 90.695 42.8548 87.4615 46.7031C83.9766 51.0062 78.2641 53.3151 72.6953 52.9653C67.5936 52.6854 62.6356 50.2015 59.6177 46.1433C56.2046 41.6653 55.3783 35.5081 57.2465 30.2604C59.1148 24.628 64.3961 20.3249 70.3601 19.3103ZM71.4379 25.9574C69.4978 26.4471 67.7014 27.5317 66.408 29.071C62.9231 33.1292 63.1386 39.7412 66.9829 43.5195C69.1745 45.6885 72.4798 46.7031 75.5336 46.1084C78.3719 45.6186 80.8509 43.7644 82.2161 41.3155C84.5873 37.1524 83.9047 31.4149 80.276 28.1614C77.9408 26.0623 74.5276 25.1877 71.4379 25.9574Z" fill="#131313"/>
<path id="Vector_4" d="M108.359 19.313C113.788 18.2981 119.721 19.768 123.784 23.478C130.399 29.2528 131.118 40.0676 125.473 46.7174C122.058 50.9174 116.521 53.2273 111.056 52.9823C105.842 52.8423 100.701 50.3224 97.6089 46.1575C94.1214 41.5726 93.3663 35.2727 95.3438 29.9178C97.3213 24.4579 102.499 20.293 108.359 19.313ZM109.438 25.9629C107.496 26.4529 105.699 27.5379 104.404 29.0428C100.953 33.0327 101.096 39.5426 104.8 43.3575C106.993 45.6325 110.409 46.7524 113.573 46.1225C116.377 45.5975 118.894 43.7775 120.26 41.3276C122.597 37.1277 121.914 31.3878 118.247 28.1329C115.91 26.0329 112.494 25.1929 109.438 25.9629Z" fill="#131313"/>
<path id="Vector_5" d="M139.575 21.3794C143.65 18.8215 149.071 18.111 153.464 20.3136C154.846 20.9175 155.98 21.9478 157.078 22.978C157.113 22.0188 157.078 21.0241 157.113 20.0294C159.487 20.0649 161.861 20.0294 164.271 20.0649V51.3986C164.235 56.1235 163.03 61.1326 159.629 64.5786C155.909 68.3799 150.204 69.5522 145.067 68.7707C139.575 67.9536 134.792 63.9392 132.666 58.859C134.792 57.8288 137.024 57.0117 139.221 56.0525C140.461 58.9656 142.976 61.4524 146.13 62.0208C149.283 62.5892 152.933 61.8076 154.988 59.1787C157.184 56.4788 157.184 52.7841 157.078 49.4802C155.448 51.0789 153.57 52.4999 151.303 53.0328C146.378 54.4183 140.957 52.713 137.166 49.3736C133.339 46.0342 131.072 40.883 131.284 35.7673C131.391 29.9766 134.65 24.399 139.575 21.3794ZM146.909 25.9266C144.748 26.2819 142.728 27.4898 141.347 29.1595C138.016 33.1384 138.016 39.4975 141.382 43.4053C143.295 45.7145 146.378 46.9934 149.354 46.6737C152.153 46.3895 154.74 44.6132 156.121 42.1619C158.46 38.0054 158.07 32.3568 154.917 28.7332C152.968 26.4951 149.85 25.3938 146.909 25.9266Z" fill="#131313"/>
<path id="Vector_6" d="M187.682 23.1483C191.965 19.2308 198.567 17.9017 204.063 19.9654C209.274 21.8891 212.593 26.751 214.271 31.7527C206.526 34.9007 198.817 38.0137 191.072 41.1616C192.143 43.1554 193.785 44.9742 195.997 45.7087C199.102 46.793 202.814 46.4083 205.419 44.3796C206.454 43.6101 207.275 42.5957 208.061 41.6164C210.023 42.9105 211.986 44.1697 213.949 45.4639C211.166 49.5562 206.49 52.4244 201.458 52.8791C195.89 53.5436 189.966 51.445 186.361 47.1778C180.437 40.4621 181.008 29.1994 187.682 23.1483ZM191.501 29.6191C190.287 31.333 189.787 33.4317 189.823 35.4953C194.998 33.3967 200.173 31.298 205.348 29.1644C204.492 27.2057 202.422 26.0164 200.316 25.7017C196.925 25.107 193.392 26.8909 191.501 29.6191Z" fill="#131313"/>
</g>
</svg>
