<svg width="136" height="30" viewBox="0 0 136 30" fill="none" xmlns="http://www.w3.org/2000/svg">
<g id="Logo/YouTube">
<path id="Vector" d="M22.7236 29.9616L13.9015 29.7988C11.0451 29.7421 8.1816 29.8554 5.38128 29.2679C1.12115 28.3901 0.819359 24.0865 0.503534 20.4765C0.0683965 15.4012 0.236837 10.234 1.05798 5.20118C1.52119 2.37689 3.34596 0.692217 6.16733 0.508178C15.6912 -0.157195 25.2783 -0.0793323 34.7811 0.232119C35.7847 0.260433 36.7954 0.416158 37.785 0.593119C42.6697 1.45669 42.789 6.33373 43.1049 10.4392C43.4207 14.5872 43.2873 18.7564 42.6838 22.876C42.1995 26.2879 41.2731 29.1475 37.3639 29.4236C32.4651 29.7846 27.6785 30.0748 22.7657 29.9828C22.7657 29.9616 22.7376 29.9616 22.7236 29.9616ZM17.537 21.3259C21.2287 19.1882 24.8502 17.0859 28.5207 14.9623C24.8221 12.8247 21.2076 10.7224 17.537 8.59883V21.3259Z" fill="#4D4D4D"/>
<g id="Group">
<path id="Vector_2" d="M114.132 25.8214C113.963 26.5089 113.815 27.0492 113.667 27.6244H110.196V1H114.245V10.8219C114.457 10.5553 114.563 10.4431 114.654 10.3238C115.346 9.3767 116.242 8.75932 117.399 8.52079C119.24 8.16299 120.814 8.96979 121.371 10.7307C121.731 11.8252 121.964 12.9968 121.992 14.1403C122.048 17.0799 122.006 20.0124 121.9 22.952C121.858 23.85 121.583 24.7691 121.237 25.6109C120.101 28.3891 116.39 28.8101 114.549 26.4037C114.436 26.2564 114.33 26.095 114.132 25.8214ZM114.33 18.4971V23.3659C114.33 24.1587 114.753 24.6428 115.55 24.8252C116.334 25.0076 116.968 24.7059 117.286 23.9833C117.42 23.6816 117.554 23.3659 117.561 23.0502C117.639 20.0756 117.709 17.1009 117.73 14.1193C117.73 13.5651 117.596 12.9898 117.427 12.4496C117.11 11.4744 116.235 11.1867 115.374 11.755C114.725 12.19 114.33 12.8074 114.33 13.6282V18.4971ZM103.324 8.89964H107.564V27.6385H104.255C104.135 26.9299 104.015 26.2003 103.874 25.3443C103.648 25.6741 103.514 25.8846 103.373 26.095C102.273 27.6735 100.713 28.2138 98.872 27.9261C97.2987 27.6735 96.3533 26.4669 96.1416 24.4884C96.0781 23.8991 96.0499 23.3028 96.0499 22.7135C96.0358 18.3287 96.0499 13.9299 96.0499 9.54508V8.8856H100.339V9.65031C100.339 13.8878 100.325 18.1182 100.354 22.3557C100.354 22.959 100.417 23.5834 100.523 24.1868C100.643 24.8041 101.094 25.0286 101.701 24.9865C102.682 24.9094 103.359 24.1868 103.359 23.2186V9.72748C103.324 9.45387 103.324 9.20131 103.324 8.89964ZM74.1295 8.8856H78.3908V9.67837C78.3908 13.8948 78.3767 18.1042 78.405 22.3066C78.405 22.9099 78.4614 23.5343 78.5884 24.1236C78.7507 24.8182 79.1599 25.0427 79.8583 24.9515C80.8249 24.8182 81.4104 24.1517 81.4175 23.1765V9.75555V8.91367H85.6577V27.6385H82.3629C82.243 26.9439 82.123 26.2283 81.9678 25.3233C81.7562 25.639 81.6362 25.8214 81.5163 26.0108C80.4157 27.6174 78.8706 28.2067 76.9869 27.9191C75.4771 27.6946 74.5528 26.5861 74.2706 24.7691C74.193 24.2008 74.1366 23.6395 74.1366 23.0713C74.1225 18.5181 74.1225 13.9439 74.1225 9.39073L74.1295 8.8856ZM71.9424 18.8899C71.9283 19.5213 71.886 20.1528 71.8507 20.7842C71.6884 22.6784 71.6108 25.3654 70.0728 26.7475C69.0921 27.6174 67.8504 27.9331 66.5664 27.9752C65.9949 27.9893 65.4164 27.9893 64.8449 27.9121C62.1428 27.5052 60.887 26.3195 60.4354 23.3659C59.9204 19.9563 59.8781 16.4906 60.4919 13.081C61.1269 9.55209 63.314 8.3033 66.7145 8.53482C69.8894 8.75932 71.3075 10.8289 71.6814 13.7755C71.886 15.4663 71.9847 17.1781 71.9424 18.8899ZM67.6247 18.2445C67.6247 17.0448 67.6529 15.8381 67.6105 14.6384C67.5823 13.9439 67.4906 13.2423 67.3424 12.5548C67.1731 11.762 66.6652 11.3832 66.0302 11.3972C65.4093 11.4112 64.9719 11.7901 64.7462 12.5267C64.6685 12.8003 64.5839 13.081 64.5839 13.3546C64.5839 15.2348 64.5698 17.122 64.5557 19.0022C64.5415 20.7561 64.3158 22.5942 64.8731 24.2709C65.0425 24.7831 65.4799 25.0637 66.0514 25.0637C66.6087 25.0637 66.9756 24.7901 67.1802 24.299C67.3425 23.9202 67.4836 23.5062 67.4836 23.0993C67.5329 21.4857 67.6247 19.8651 67.6247 18.2445ZM54.2128 14.7156C54.5867 12.8986 54.9395 11.1236 55.3275 9.34162C55.8143 7.07556 56.3576 4.8095 56.8373 2.53643C56.9573 1.98219 57.183 1.8489 57.7122 1.86293C58.848 1.90502 60.0051 1.87696 61.2186 1.87696C60.8235 3.32218 60.4354 4.69725 60.0545 6.05128C58.848 10.3028 57.6416 14.5683 56.4493 18.8338C56.3576 19.1635 56.3152 19.5213 56.3152 19.8721C56.3011 22.2013 56.3152 24.5235 56.3152 26.8527V27.6104H52.1738C52.1597 27.3999 52.1315 27.1895 52.1315 26.979C52.1315 25.6601 52.0257 24.3341 52.1456 23.0292C52.449 19.8932 51.4472 17.0097 50.6358 14.0912C49.5634 10.2326 48.4769 6.35997 47.4046 2.50135C47.3481 2.31894 47.3269 2.12251 47.2705 1.898H51.4966C52.3855 6.15651 53.2815 10.415 54.2128 14.7156ZM135.241 19.6055H128.102C128.179 21.0297 128.207 22.3837 128.356 23.7237C128.461 24.6568 128.976 25.0567 129.788 25.0637C130.634 25.0778 131.128 24.6568 131.326 23.7307C131.389 23.4291 131.432 23.1274 131.46 22.8187C131.488 22.5451 131.502 22.2504 131.523 21.8576C132.73 21.9207 133.908 21.9909 135.072 22.04C135.749 24.0394 134.529 26.6072 132.476 27.3999C130.86 28.0313 129.202 28.0313 127.551 27.5473C126.331 27.1895 125.421 26.4177 125.011 25.2321C124.63 24.1236 124.271 22.966 124.193 21.8085C123.981 18.9531 123.904 16.0696 124.341 13.2073C124.419 12.7302 124.553 12.2742 124.701 11.8111C125.294 9.90287 126.585 8.73126 128.581 8.53482C129.668 8.42959 130.79 8.47168 131.862 8.65409C133.597 8.95576 134.522 10.1975 134.924 11.8252C135.107 12.5899 135.241 13.3756 135.27 14.1544C135.277 15.9434 135.241 17.7183 135.241 19.6055ZM131.185 17.143C131.185 15.7329 131.199 14.4069 131.171 13.074C131.171 12.7583 131.051 12.4285 130.931 12.1268C130.691 11.5375 130.19 11.3762 129.59 11.3762C128.99 11.3762 128.609 11.6778 128.461 12.218C128.01 13.8387 128.158 15.4944 128.172 17.1571C129.252 17.143 130.232 17.143 131.185 17.143Z" fill="#4D4D4D"/>
<path id="Vector_3" d="M89.6258 5.42404H85.2705V2H98.2705V5.40273H93.9445V28H89.6331L89.6258 5.42404Z" fill="#4D4D4D"/>
</g>
</g>
</svg>
