<svg width="91" height="44" viewBox="0 0 91 44" fill="none" xmlns="http://www.w3.org/2000/svg">
<g id="logo 2">
<path id="Vector" d="M3.19922 0.193359H5.86654V18.9H3.19922V0.193359ZM4.73737 16.4013H21.8393V18.9H4.73737V16.4013ZM11.8769 0.193359H14.5442V18.9H11.8769V0.193359ZM20.5501 0.193359H23.2174V18.9H20.5501V0.193359Z" fill="#1D1D1B"/>
<path id="Vector_2" d="M24.6953 0.193351H27.3626V18.8999H24.6953V0.193351ZM25.9845 8.36102H31.9104V10.8596H25.9845V8.36102ZM29.5676 10.6576L31.8971 9.30513L39.2055 18.8912H35.5202L29.5676 10.6576ZM29.5676 8.62449L35.0623 0.18457H38.3964L30.9102 10.9255L29.5676 8.62449Z" fill="#1D1D1B"/>
<path id="Vector_3" d="M43.3588 6.80614C43.343 6.03784 43.5106 5.27666 43.8478 4.58418C44.1514 3.97156 44.6266 3.45793 45.2171 3.10434C45.8509 2.76421 46.5607 2.58603 47.282 2.58603C48.0033 2.58603 48.7131 2.76421 49.3469 3.10434C49.941 3.45623 50.4196 3.9701 50.7251 4.58418C51.0623 5.27666 51.2299 6.03784 51.2141 6.80614V7.60973H53.9347V6.89396C53.9618 5.63929 53.678 4.39711 53.1079 3.2756C52.585 2.26037 51.7719 1.41908 50.7695 0.856035C49.6943 0.293882 48.4963 0 47.2798 0C46.0633 0 44.8652 0.293882 43.79 0.856035C42.7876 1.41908 41.9746 2.26037 41.4517 3.2756C40.8816 4.39711 40.5977 5.63929 40.6248 6.89396V7.60973H43.3455L43.3588 6.80614Z" fill="black"/>
<path id="Vector_4" d="M43.3574 7.60986H40.6367V31.8889H43.3574V7.60986Z" fill="black"/>
<path id="Vector_5" d="M53.9433 7.60986H51.2227V31.8889H53.9433V7.60986Z" fill="black"/>
<path id="Vector_6" d="M51.2258 33.3207C51.2381 34.0802 51.0706 34.832 50.7368 35.5163C50.4332 36.1317 49.9542 36.646 49.3587 36.9961C48.7258 37.339 48.0156 37.5187 47.2938 37.5187C46.5719 37.5187 45.8617 37.339 45.2288 36.9961C44.6316 36.6467 44.151 36.1323 43.8463 35.5163C43.5124 34.832 43.345 34.0802 43.3573 33.3207V31.8936H40.6366V33.2109C40.6091 34.467 40.893 35.7107 41.4635 36.8337C41.9876 37.848 42.8004 38.689 43.8018 39.2532C44.877 39.8154 46.075 40.1093 47.2915 40.1093C48.5081 40.1093 49.7061 39.8154 50.7813 39.2532C51.7827 38.689 52.5955 37.848 53.1196 36.8337C53.6901 35.7107 53.974 34.467 53.9465 33.2109V31.8936H51.2258V33.3207Z" fill="black"/>
<path id="Vector_7" d="M55.4531 16.5036C56.1772 16.5341 56.8927 16.3529 57.4921 15.9873C58.0576 15.5716 58.4594 15.004 58.6384 14.3682C58.9158 13.4397 59.0423 12.4803 59.014 11.5194V0.352051H61.9408V11.3619C61.992 12.8422 61.7745 14.3201 61.2969 15.7378C60.9642 16.7413 60.2584 17.6123 59.297 18.2059C58.2284 18.7756 56.9974 19.0524 55.7556 19.0023H55.4678L55.4531 16.5036ZM60.8189 0.352051H70.7797V2.83758H60.8286L60.8189 0.352051ZM69.2334 0.352051H72.1602V18.9935H69.2334V0.352051Z" fill="#1D1D1B"/>
<path id="Vector_8" d="M81.042 0.193359H83.3092L90.2887 18.9H87.4258L82.1756 3.80733L76.9254 18.9H74.0625L81.042 0.193359ZM77.2766 12.2999H87.2435V14.7942H77.2766V12.2999Z" fill="#1D1D1B"/>
<path id="Vector_9" d="M31.1971 29.4344L35.9494 21.4204H38.9323L32.6775 31.5466L27.5962 40.127H24.6133L31.1971 29.4344ZM31.3127 31.9066L30.9082 31.2611L24.76 21.4204H27.7429L32.3174 29.0348L32.7619 29.7286L39.2346 40.127H36.2339L31.3127 31.9066Z" fill="#1D1D1B"/>
<path id="Vector_10" d="M55.4673 37.6284H71.8891V40.127H55.4673V37.6284ZM55.4673 37.6284H58.1347V43.9957H55.4673V37.6284ZM55.4673 37.6284H55.5829C56.0868 37.6462 56.5866 37.5341 57.0333 37.3031C57.4799 37.0721 57.858 36.7302 58.1302 36.311C58.7229 35.4328 59.0193 34.2032 59.0193 32.6224V21.4204H61.6866V32.8376C61.7196 34.0442 61.4844 35.2434 60.9976 36.3506C60.5754 37.2752 59.8774 38.0504 58.9971 38.5725C58.0344 39.1047 56.9435 39.3688 55.8408 39.3366H55.4629L55.4673 37.6284ZM60.6864 21.4204H69.2707V23.9146H60.6997L60.6864 21.4204ZM67.8659 21.4204H70.5332V40.127H67.8659V21.4204ZM70.4043 37.6284H73.0716V43.9957H70.4043V37.6284Z" fill="#1D1D1B"/>
<path id="Vector_11" d="M87.278 40.1194V25.4495L87.6341 25.7825L76.7852 40.1194H74.293V21.4722H77.2938V36.3654L76.9378 36.0325L87.8273 21.4809H90.2891V40.1282L87.278 40.1194Z" fill="#1D1D1B"/>
</g>
</svg>
