<svg width="36" height="36" viewBox="0 0 36 36" fill="none" xmlns="http://www.w3.org/2000/svg">
<g id="Frame">
<g id="Group">
<path id="Vector" d="M32.9008 20.0727C32.9504 19.9748 33 19.8281 33 19.6813L32.6528 9.11527C32.7024 7.20751 31.7104 5.83784 30.0736 5.49542C29.0816 5.29975 28.0896 5.59325 27.3952 6.18026C26.9488 5.49542 26.2048 4.95733 25.312 4.76166C24.32 4.566 23.3776 4.8595 22.6336 5.4465C22.1872 4.71275 21.4432 4.22358 20.5504 4.02791C19.4096 3.88116 18.2192 4.32141 17.5248 5.153C16.7808 4.32141 15.64 3.88116 14.4992 4.12574C13.6064 4.32141 12.8624 4.81058 12.416 5.54434C11.672 4.95733 10.7296 4.66383 9.7376 4.8595C8.8448 5.00625 8.1008 5.54434 7.6544 6.27809C6.9104 5.69109 5.968 5.39758 4.976 5.59325C3.3392 5.83784 2.2976 7.25643 2.3472 9.11527L2 19.7792C2 20.0238 2.0992 20.2683 2.2976 20.4151C2.496 20.5618 2.744 20.6108 2.992 20.5129C3.0416 20.464 3.6368 20.2683 4.6288 19.9748C4.6288 19.9748 16.9792 30.7855 17.0288 30.8344C17.2768 31.0301 17.7728 31.079 18.0208 30.8344L30.4704 19.9259C30.9664 20.0727 31.512 20.2683 32.008 20.4151C32.4048 20.5618 32.752 20.3662 32.9008 20.0727ZM29.8256 6.96293C30.8672 7.1586 31.2144 8.18585 31.1648 9.11527L31.4624 18.703C30.272 18.3117 29.1312 18.0182 27.8912 17.7247V7.89235C28.288 7.20751 29.0816 6.81618 29.8256 6.96293ZM25.064 6.22917C25.808 6.37592 26.4032 6.96293 26.4528 7.7456V17.4312C25.3616 17.2355 24.2208 17.0887 23.1792 16.942V7.1586C23.5264 6.47376 24.32 6.08242 25.064 6.22917ZM22.2368 18.3606L17.5248 28.5353L12.8624 18.5073C15.64 18.2138 18.864 18.0671 22.2368 18.3606ZM20.3024 5.54434C21.0464 5.69109 21.6416 6.32701 21.6912 7.06076V16.8442C20.5008 16.7463 19.36 16.6974 18.2688 16.6974V6.81618C18.4672 5.93567 19.36 5.34867 20.3024 5.54434ZM14.7472 5.54434C15.6896 5.34867 16.5824 5.93567 16.7808 6.81618V16.6974C15.5904 16.7463 14.4496 16.7952 13.3584 16.8931V7.10968C13.408 6.32701 14.0032 5.69109 14.7472 5.54434ZM9.9856 6.27809C10.7792 6.13134 11.5232 6.52267 11.8704 7.20751V17.0887C10.68 17.2355 9.5888 17.3822 8.5968 17.5779V7.79452C8.6464 7.01184 9.2416 6.42484 9.9856 6.27809ZM3.8352 9.11527C3.8352 8.23477 4.1328 7.20751 5.1744 6.96293C5.968 6.81618 6.712 7.20751 7.0592 7.89235V17.8225C5.5216 18.1649 4.2816 18.4584 3.488 18.703L3.8352 9.11527ZM11.3248 18.6541L15.392 27.4591L6.3648 19.5835C7.704 19.2411 9.3904 18.9476 11.3248 18.6541ZM19.6576 27.4591L23.7744 18.5562C25.4112 18.7519 27.0976 19.0454 28.7344 19.4857L19.6576 27.4591Z" fill="black"/>
</g>
</g>
</svg>
