<svg width="36" height="36" viewBox="0 0 36 36" fill="none" xmlns="http://www.w3.org/2000/svg">
<mask id="mask0_567_16038" style="mask-type:luminance" maskUnits="userSpaceOnUse" x="2" y="3" width="31" height="31">
<path d="M2 3H33V34H2V3Z" fill="white"/>
</mask>
<g mask="url(#mask0_567_16038)">
<path d="M25.7031 18.2969C26.6407 19.2344 28.1606 19.2344 29.0981 18.2969L30.2969 17.0981C31.2344 16.1606 31.2344 14.6406 30.2969 13.7031C29.3594 12.7656 27.8394 12.7656 26.9019 13.7031L25.7031 14.9019C24.7656 15.8394 24.7656 17.3593 25.7031 18.2969Z" stroke="#1D7D74" stroke-miterlimit="10" stroke-linecap="round" stroke-linejoin="round"/>
<path d="M30 18L27.7404 15.4127C27.2598 14.8624 26.4806 14.8624 26 15.4127" stroke="#1D7D74" stroke-miterlimit="10" stroke-linecap="round" stroke-linejoin="round"/>
<path d="M17 18.391V23H12.2141C11.5179 23 10.8326 22.8128 10.2203 22.4555C9.60799 22.0981 9.088 21.5818 8.70736 20.9533L6 16.4771L8.05553 15L10.932 19.4099H13.1779C13.9165 18.7513 14.845 18.391 15.8035 18.391H17Z" stroke="#1D7D74" stroke-miterlimit="10" stroke-linecap="round" stroke-linejoin="round"/>
<path d="M18 23H22.4948C22.9681 23 23.4361 22.9109 23.8679 22.7385C24.2997 22.5662 24.6855 22.3145 25 22" stroke="#1D7D74" stroke-miterlimit="10" stroke-linecap="round" stroke-linejoin="round"/>
<path d="M3 16.0474C3.70863 17.0325 5.14113 17.2964 6.1996 16.637L8 15.5153L7.13129 14.3076C6.90244 13.9895 6.43986 13.9042 6.09804 14.1172L3 16.0474Z" stroke="#1D7D74" stroke-miterlimit="10" stroke-linecap="round" stroke-linejoin="round"/>
<path d="M18 18L20.8742 17.4157C22.2347 17.1392 23.6159 17 25 17" stroke="#1D7D74" stroke-miterlimit="10" stroke-linecap="round" stroke-linejoin="round"/>
<path d="M34 21.6563C34 22.3984 33.3938 23 32.6828 23C29.295 23 26.0021 21.7147 23.4593 19.3799C22.9292 18.8931 22.8382 18.0508 23.2902 17.4845C23.7571 16.8996 24.5911 16.8365 25.1334 17.3376C27.2096 19.2561 29.9099 20.3127 32.6828 20.3127C33.3938 20.3127 34 20.9143 34 21.6563Z" stroke="#1D7D74" stroke-miterlimit="10" stroke-linecap="round" stroke-linejoin="round"/>
<path d="M20 18V23" stroke="#1D7D74" stroke-miterlimit="10" stroke-linecap="round" stroke-linejoin="round"/>
<path d="M14 20L17 23" stroke="#1D7D74" stroke-miterlimit="10" stroke-linecap="round" stroke-linejoin="round"/>
<path d="M12.3957 9H14.5072C15.3316 9 16 8.29379 16 7.42261C16 6.58457 15.3815 5.89958 14.6006 5.84854C14.4233 4.50265 13.3304 3.46645 12.0079 3.46645C11.4101 3.46562 10.8303 3.68187 10.3655 4.07898C9.96067 3.42921 9.26452 3 8.47325 3C7.2733 3 6.29196 3.98647 6.21451 5.23367C5.86535 4.94571 5.435 4.78957 4.99208 4.79014C3.89189 4.79014 3 5.73253 3 6.8951C3 8.0576 3.89189 9 4.99208 9H6.85071" stroke="#1D7D74" stroke-miterlimit="10" stroke-linecap="round" stroke-linejoin="round"/>
<path d="M29.5072 33C30.3316 33 31 32.2938 31 31.4226C31 30.5846 30.3815 29.8996 29.6006 29.8485C29.4234 28.5027 28.3304 27.4664 27.0079 27.4664C26.3858 27.4664 25.8147 27.6961 25.3655 28.079C24.9607 27.4292 24.2646 27 23.4732 27C22.2733 27 21.292 27.9865 21.2146 29.2337C20.8654 28.9457 20.4351 28.7896 19.9921 28.7901C18.8919 28.7901 18 29.7325 18 30.8951C18 32.0576 18.8919 33 19.9921 33H29.5072Z" stroke="#1D7D74" stroke-miterlimit="10" stroke-linecap="round" stroke-linejoin="round"/>
<path d="M25 18V17.2563C25 16.0102 23.85 15 22.4315 15H17.7075C16.7645 15 16 15.6716 16 16.5C16 17.3284 16.7645 18 17.7075 18H18.8012" stroke="#1D7D74" stroke-miterlimit="10" stroke-linecap="round" stroke-linejoin="round"/>
</g>
</svg>
