<svg width="136" height="30" viewBox="0 0 136 30" fill="none" xmlns="http://www.w3.org/2000/svg">
<g id="Frame 1171275681">
<path id="Logo/Pinterest" d="M14.5889 0.0323557C12.8417 0.214079 10.2207 0.968929 8.72953 1.72378C4.72285 3.72273 2.01156 6.83998 0.65591 10.9917C0.38478 11.8024 0.0684631 14.0111 0.0835258 15.0455C0.0835258 15.9541 0.38478 18.1767 0.565533 18.7079C0.65591 18.9595 0.851725 19.5606 1.01742 20.0219C1.28854 20.8047 2.599 23.265 2.82494 23.4327C2.87013 23.4746 3.11113 23.7542 3.33708 24.0757C3.8944 24.8446 5.35548 26.2145 6.45506 26.9973C7.29857 27.5984 9.67849 28.8704 9.97974 28.8844C10.0551 28.8844 10.0701 28.3532 10.0249 27.6543C9.91949 26.1026 10.2358 23.9918 10.9136 21.8391C11.0341 21.4757 11.1245 21.0004 11.1245 20.7907C11.1245 20.581 11.1848 20.3574 11.2601 20.2875C11.3354 20.2036 11.471 19.7982 11.5463 19.3789C11.6366 18.9595 11.7873 18.3165 11.8927 17.9531C12.0433 17.4079 12.0283 17.1982 11.8174 16.6111C11.5161 15.7165 11.5011 14.2627 11.8023 13.5637C12.5103 11.9003 13.2935 11.2712 14.6191 11.2712C16.2157 11.2712 16.9839 12.3895 16.6827 14.2627C16.5471 15.1154 16.1705 16.4573 15.9295 16.8767C15.8693 17.0025 15.7638 17.352 15.7186 17.6455C15.6584 17.9531 15.5379 18.3864 15.4626 18.624C15.2517 19.1692 15.6584 20.2316 16.2006 20.637C16.7128 21.0144 17.7822 21.1262 18.7613 20.9165C19.4542 20.7767 19.7404 20.609 20.4634 19.966C21.322 19.1832 21.9697 18.2746 21.9697 17.8412C21.9697 17.7154 22.045 17.5477 22.1354 17.4638C22.5571 17.0724 22.7831 14.025 22.4667 12.739C22.1203 11.3271 21.0508 9.94325 19.6651 9.13249C18.2793 8.30775 15.4174 8.07011 13.655 8.62926C12.4199 9.02066 11.3203 9.67766 10.6124 10.4465C9.97974 11.1314 9.31698 12.2497 9.31698 12.6411C9.31698 12.7809 9.24167 12.9627 9.15129 13.0465C9.06091 13.1304 8.95547 13.6616 8.91029 14.2347C8.83497 15.0874 8.89522 15.4788 9.16635 16.3175C9.34711 16.8907 9.67848 17.5616 9.8743 17.8133C10.281 18.3165 10.281 18.5122 9.90443 19.8542C9.79899 20.2176 9.61824 20.5531 9.5128 20.595C8.56384 20.9305 6.63581 18.8197 5.98812 16.7229C5.74711 15.9261 5.73205 13.0885 5.97305 12.2497C6.07849 11.9003 6.25925 11.425 6.37975 11.1734C6.50025 10.9357 6.60569 10.6981 6.60569 10.6422C6.60569 10.5863 6.90694 10.111 7.28351 9.59379C9.24167 6.85396 12.4199 5.40018 16.4417 5.40018C17.3605 5.40018 18.3094 5.45609 18.5655 5.52599C20.6442 6.12707 21.2015 6.32277 22.0149 6.77009C23.5965 7.65075 24.7412 8.85292 25.886 10.8658C25.9613 10.9917 26.0667 11.3271 26.1119 11.6067C26.1722 11.8863 26.2776 12.1519 26.3529 12.1938C26.4282 12.2358 26.4885 13.1444 26.4885 14.2207C26.4885 16.1638 26.3379 16.9466 25.7052 18.5402C24.9973 20.2875 23.1747 22.2166 21.5178 22.9714C20.5688 23.3908 18.7914 23.8521 18.0835 23.8521C17.1345 23.8521 15.2668 23.1252 14.7546 22.5381C14.5136 22.2725 14.2877 22.3703 14.2877 22.7477C14.2877 22.8875 14.2274 23.1252 14.1371 23.265C14.0617 23.3908 13.9262 23.7822 13.8509 24.1316C13.414 25.9768 12.7965 27.4725 11.8475 28.8704C11.5613 29.3038 11.8023 29.5554 12.5856 29.6532C12.9772 29.7091 13.5044 29.807 13.7454 29.8769C14.3479 30.0586 17.6165 30.0306 18.7161 29.8489C19.7103 29.6812 21.322 29.2618 22.045 28.9822C26.5939 27.2489 30.0433 23.7263 31.5345 19.2391C32.3328 16.8487 32.378 14.067 31.655 11.2712C31.414 10.3626 31.3387 10.1529 30.691 8.75506C29.7571 6.71417 27.6483 4.32382 25.5094 2.85605C23.6718 1.59797 21.8642 0.871078 19.0475 0.242036C18.2642 0.0742918 15.4776 -0.0654952 14.5889 0.0323557ZM54.7612 5.07867C54.1738 5.16254 53.2399 6.05718 52.9989 6.75611C52.7428 7.52494 52.9989 8.34968 53.7219 8.9927C55.3186 10.4325 58.0901 9.07658 57.7437 7.00773C57.5328 5.69373 56.2374 4.85501 54.7612 5.07867ZM38.3429 5.90341C38.2073 6.0432 38.2073 22.9015 38.3579 23.0972C38.4332 23.209 39.0809 23.251 40.3462 23.237L42.229 23.223L42.3044 20.3853C42.3646 18.0789 42.4249 17.5197 42.6056 17.4219C42.7261 17.352 43.7504 17.2821 44.8801 17.2821C47.3504 17.2821 48.3897 17.1143 49.5194 16.5552C50.9956 15.8143 51.8541 14.7519 52.3211 13.0605C52.6073 11.9981 52.6073 11.2293 52.306 10.139C52.0349 9.16045 51.9144 8.92281 51.2667 8.12602C50.4684 7.13354 49.655 6.58837 48.3295 6.15503C47.5914 5.93137 46.9738 5.88943 42.9822 5.8475C40.4968 5.81954 38.4031 5.8475 38.3429 5.90341ZM46.6123 9.38411C47.6215 9.67766 48.1186 10.097 48.3445 10.8519C48.6307 11.8444 48.4198 12.767 47.7872 13.3261C47.0943 13.9272 46.4767 14.067 44.4583 14.067C43.1328 14.067 42.7261 14.025 42.5454 13.8433C42.3496 13.6756 42.3044 13.2702 42.3044 11.6766C42.3044 9.16045 42.2893 9.17443 44.383 9.17443C45.2868 9.17443 46.1604 9.2583 46.6123 9.38411ZM73.0323 8.55936C73.0323 9.52389 72.957 10.4325 72.8817 10.5863C72.7763 10.768 72.5654 10.8519 72.2039 10.8519C71.9328 10.8519 71.6767 10.9078 71.6466 10.9917C71.6315 11.0616 71.6315 11.5508 71.6767 12.068C71.752 12.9906 71.7671 13.0046 72.2189 13.1024C72.475 13.1444 72.7612 13.2282 72.8516 13.2842C72.9871 13.3541 73.0323 14.4584 73.0323 17.2541C73.0323 21.0144 73.0474 21.1542 73.3788 21.7133C74.0717 22.9015 75.1562 23.3209 77.3553 23.265L78.8315 23.223L78.8767 21.8671L78.9219 20.4972H78.5453C77.9729 20.4972 77.1294 20.0778 77.039 19.7423C76.9938 19.5746 76.9486 18.0928 76.9486 16.4294C76.9486 14.1369 76.9938 13.368 77.1445 13.2562C77.2499 13.1723 77.6717 13.0885 78.0784 13.0605L78.8315 13.0186V10.9218L78.003 10.8798C77.5512 10.8519 77.1294 10.754 77.0691 10.6701C77.0089 10.5723 76.9486 9.66368 76.9486 8.64324V6.79805H73.0323V8.55936ZM129.021 6.88192C128.96 6.93783 128.915 7.81849 128.915 8.83894C128.915 10.8239 128.9 10.8519 128.072 10.8519C127.695 10.8519 127.695 10.8658 127.74 11.9282C127.785 12.9906 127.8 13.0186 128.192 13.0605C128.403 13.0885 128.659 13.1863 128.734 13.2702C128.825 13.368 128.915 15.0595 128.96 17.2122C129.005 19.281 129.081 21.1682 129.141 21.3918C129.322 22.0069 130.256 22.7897 131.144 23.0553C132.139 23.3628 134.669 23.3908 134.925 23.0972C135.046 22.9714 135.091 22.4682 135.061 21.7413L135.015 20.5671L134.488 20.4832C133.916 20.3993 133.268 20.1198 133.103 19.8821C133.042 19.7982 132.982 18.2746 132.982 16.4993C132.982 12.8508 132.892 13.0885 134.202 13.0885C135.061 13.0885 135.136 12.9487 135.061 11.6766L135.015 10.9218L134.036 10.8519L133.057 10.782L132.982 8.82496L132.907 6.86794L131.009 6.826C129.969 6.81203 129.081 6.83998 129.021 6.88192ZM65.5763 10.5164C64.8382 10.6981 63.9796 11.1594 63.4072 11.7046C62.7144 12.3755 62.5336 12.3336 62.4583 11.4809L62.4131 10.9218H58.6474V23.223L60.5453 23.251C62.4131 23.2929 62.4583 23.2789 62.5487 22.9714C62.5939 22.8037 62.639 21.0284 62.639 19.0154C62.639 15.0315 62.6541 14.9197 63.5428 14.1369C63.9344 13.7874 64.1453 13.7175 64.9888 13.6756L65.9679 13.6197L66.5554 14.1928C67.2482 14.8638 67.1729 14.2207 67.2332 20.0079C67.2482 21.5456 67.2633 22.9015 67.2784 23.0413C67.3085 23.237 67.5495 23.265 69.2365 23.237L71.1495 23.223V13.41L70.7127 12.6132C69.9595 11.2293 68.7997 10.5723 67.0223 10.4884C66.3897 10.4744 65.742 10.4744 65.5763 10.5164ZM84.4047 10.5164C82.7779 10.9218 81.9947 11.3271 80.9855 12.2497C79.6298 13.5218 79.0122 15.0035 79.0122 17.0025C79.0273 20.5112 81.3922 23.1112 84.8867 23.4187C87.8691 23.6843 90.1737 22.8736 91.6499 21.0423C91.8607 20.7767 92.3126 19.924 92.3126 19.7703C92.3126 19.7144 91.439 19.6585 90.3846 19.6585H88.4566L88.0047 20.0918C87.4775 20.595 86.7394 20.9165 86.0616 20.9165C85.3838 20.9165 84.3445 20.4692 83.8624 19.9939C83.5009 19.6165 82.9737 18.5262 82.9737 18.1488C82.9737 18.0229 84.0733 17.981 87.6131 17.981C90.1587 17.981 92.3126 17.9251 92.4181 17.8692C92.644 17.7294 92.4331 15.5068 92.1018 14.696C91.4239 13.0046 90.1436 11.5788 88.8482 11.0755C88.4716 10.9357 88.0348 10.754 87.8842 10.6841C87.5679 10.5304 84.8867 10.4046 84.4047 10.5164ZM87.3419 13.5777C87.9294 13.9551 88.4415 14.8498 88.3662 15.353C88.321 15.6745 88.2909 15.6745 85.7453 15.7165C82.8081 15.7584 82.793 15.7444 83.2599 14.7379C83.5913 14.039 84.2541 13.41 84.8716 13.2282C85.5796 13.0186 86.7244 13.1863 87.3419 13.5777ZM106.698 10.5164C104.95 10.9497 103.73 11.6626 102.781 12.767C102.405 13.2143 102.103 13.6336 102.103 13.7175C102.103 13.7874 101.998 14.039 101.862 14.2767C101.727 14.5003 101.531 15.1992 101.426 15.8283C100.898 18.8197 102.344 21.6155 105.056 22.8736L106.095 23.3628H108.279C110.539 23.3628 110.734 23.3209 112.12 22.6359C113.129 22.1327 114.786 20.1757 114.53 19.7843C114.47 19.7144 113.611 19.6585 112.602 19.6585H110.749L110.373 20.0638C108.867 21.6434 106.05 20.8327 105.447 18.638C105.357 18.3445 105.357 18.0928 105.432 18.0369C105.508 17.995 107.662 17.967 110.237 17.981C113.913 17.981 114.907 17.9531 114.922 17.8133C115.057 16.0659 114.154 13.4799 113.024 12.3616C112.391 11.7325 111.292 11.0336 110.749 10.9078C110.508 10.8519 110.237 10.754 110.132 10.6841C109.921 10.5304 107.164 10.4046 106.698 10.5164ZM109.047 13.2422C109.725 13.4659 110.508 14.2487 110.629 14.8498C110.81 15.7584 110.825 15.7584 108.023 15.7165C105.508 15.6745 105.493 15.6745 105.447 15.353C105.387 14.9616 105.914 13.9971 106.366 13.6336C107.014 13.1304 108.144 12.9627 109.047 13.2422ZM119.802 10.5164C116.714 11.2013 115.6 12.2218 115.585 14.3465C115.585 16.6391 116.82 17.6036 120.48 18.2047C122.995 18.6101 123.718 18.9735 123.688 19.8542C123.673 20.4832 123.206 20.8886 122.272 21.0703C121.098 21.3079 120.179 21.0423 119.441 20.2735L118.853 19.6585H117.031C115.554 19.6585 115.208 19.7004 115.208 19.8542C115.208 20.2595 115.81 21.3219 116.308 21.8531C116.775 22.3144 117.136 22.5381 118.552 23.1671C118.687 23.237 119.426 23.3488 120.164 23.4327C121.534 23.5865 123.914 23.4467 124.517 23.1671C124.652 23.1112 125.044 22.9295 125.375 22.7897C126.234 22.4123 127.047 21.5596 127.349 20.7488C127.68 19.8262 127.59 18.5402 127.123 17.6455C126.565 16.5971 125.089 15.8423 122.89 15.4788C120.058 15.0175 120.013 15.0035 119.561 14.5982C119.019 14.081 119.019 13.8992 119.561 13.3401C119.998 12.8928 120.028 12.8788 121.233 12.8788C122.438 12.8788 122.468 12.8928 122.905 13.3401C123.146 13.5917 123.342 13.8852 123.342 13.9971C123.342 14.1648 123.658 14.2068 125.225 14.2068C127.303 14.2068 127.243 14.2487 126.882 13.2562C126.219 11.4949 124.517 10.6003 121.685 10.5024C120.811 10.4744 119.968 10.4744 119.802 10.5164ZM99.7687 10.8099C99.1059 11.0196 98.1871 11.7185 97.9009 12.2218C97.6147 12.725 97.3587 12.5153 97.2833 11.6766L97.208 10.9218H93.4423L93.3971 16.7928C93.3821 20.0219 93.3971 22.8037 93.4423 22.9854C93.5177 23.2929 93.5628 23.2929 95.3704 23.265C96.4097 23.251 97.2532 23.1671 97.3135 23.0832C97.3737 23.0133 97.434 21.5316 97.434 19.7982C97.434 17.0584 97.4641 16.5692 97.7202 15.9541C98.2474 14.682 99.3771 13.9272 100.793 13.9272C101.185 13.9272 101.35 13.8573 101.395 13.6756C101.501 13.2702 101.516 11.3831 101.426 10.9637C101.335 10.6282 101.26 10.5723 100.853 10.5863C100.582 10.6003 100.1 10.6981 99.7687 10.8099ZM53.3755 11.0196C53.3303 11.1175 53.3152 13.8713 53.3303 17.1423L53.3755 23.0832L55.1679 23.1531C56.2525 23.1951 57.0357 23.1671 57.1562 23.0832C57.3219 22.9714 57.3671 21.7832 57.3671 17.0305C57.3822 13.7874 57.337 11.0616 57.2918 10.9917C57.1412 10.782 53.4508 10.8099 53.3755 11.0196Z" fill="#4D4D4D"/>
</g>
</svg>
