<svg width="136" height="30" viewBox="0 0 136 30" fill="none" xmlns="http://www.w3.org/2000/svg">
<g id="Frame 1171275682">
<path id="Logo/Twitch" d="M129.996 5.52632H124.075V0H111.073L105.094 5.52632H94.4696L90.917 7.89474V5.52632H82.6275V0H56.5749V5.52632H19.9236L13.9433 0H0.916992V18.9474L17.4959 30H34.0749V26.8421L38.8117 30H70.7854V26.8421L75.5223 30H90.917V26.8421L95.6538 30H125.259L135.917 22.8947V9.47369L129.996 5.52632ZM21.0486 13.4211H12.7591V15H21.0486V21.3158H8.02226L3.28541 18.1579V1.57895H12.7591V7.10526H21.0486V13.4211ZM56.5749 21.3158H28.1538L23.417 18.1579V7.10526H32.8907V15H35.2591V7.10526H44.7328V15H47.1012V7.10526H56.5749V21.3158ZM68.417 21.3158H58.9433V7.10526H68.417V21.3158ZM68.417 5.52632H58.9433V1.57895H68.417V5.52632ZM88.5486 13.4211H80.2591V15H88.5486V21.3158H75.5223L70.7854 18.1579V1.57895H80.2591V7.10526H88.5486V13.4211ZM109.864 13.4211H100.391V15H109.864V21.3158H95.6538L90.917 18.1579V10.2632L95.6538 7.10526H109.864V13.4211ZM133.549 21.3158H124.075V13.4211H121.706V21.3158H112.233V1.57895H121.706V7.10526H128.812L133.549 10.2632V21.3158Z" fill="#4D4D4D"/>
</g>
</svg>
