<svg width="95" height="48" viewBox="0 0 95 48" fill="none" xmlns="http://www.w3.org/2000/svg">
<path d="M5.19922 2.19336H7.86654V20.9H5.19922V2.19336ZM6.73737 18.4013H23.8393V20.9H6.73737V18.4013ZM13.8769 2.19336H16.5442V20.9H13.8769V2.19336ZM22.5501 2.19336H25.2174V20.9H22.5501V2.19336Z" fill="#131313"/>
<path d="M26.6953 2.19335H29.3626V20.8999H26.6953V2.19335ZM27.9845 10.361H33.9104V12.8596H27.9845V10.361ZM31.5676 12.6576L33.8971 11.3051L41.2055 20.8912H37.5202L31.5676 12.6576ZM31.5676 10.6245L37.0623 2.18457H40.3964L32.9102 12.9255L31.5676 10.6245Z" fill="#131313"/>
<path d="M45.3588 8.80614C45.343 8.03784 45.5106 7.27666 45.8478 6.58418C46.1514 5.97156 46.6266 5.45793 47.2171 5.10434C47.8509 4.76421 48.5607 4.58603 49.282 4.58603C50.0033 4.58603 50.7131 4.76421 51.3469 5.10434C51.941 5.45623 52.4196 5.9701 52.7251 6.58418C53.0623 7.27666 53.2299 8.03784 53.2141 8.80614V9.60973H55.9347V8.89396C55.9618 7.63929 55.678 6.39711 55.1079 5.2756C54.585 4.26037 53.7719 3.41908 52.7695 2.85603C51.6943 2.29388 50.4963 2 49.2798 2C48.0633 2 46.8652 2.29388 45.79 2.85603C44.7876 3.41908 43.9746 4.26037 43.4517 5.2756C42.8816 6.39711 42.5977 7.63929 42.6248 8.89396V9.60973H45.3455L45.3588 8.80614Z" fill="#131313"/>
<path d="M45.3573 9.60974H42.6366V33.8888H45.3573V9.60974Z" fill="#131313"/>
<path d="M55.9433 9.60962H53.2227V33.8887H55.9433V9.60962Z" fill="#131313"/>
<path d="M53.2258 35.3203C53.2381 36.0798 53.0707 36.8316 52.7368 37.5159C52.4332 38.1313 51.9543 38.6457 51.3587 38.9958C50.7258 39.3386 50.0156 39.5184 49.2938 39.5184C48.5719 39.5184 47.8617 39.3386 47.2288 38.9958C46.6316 38.6463 46.151 38.1319 45.8463 37.5159C45.5124 36.8316 45.345 36.0798 45.3573 35.3203V33.8932H42.6366V35.2105C42.6091 36.4666 42.893 37.7103 43.4635 38.8333C43.9876 39.8476 44.8004 40.6886 45.8018 41.2528C46.877 41.815 48.075 42.1089 49.2915 42.1089C50.5081 42.1089 51.7061 41.815 52.7813 41.2528C53.7827 40.6886 54.5955 39.8476 55.1196 38.8333C55.6901 37.7103 55.974 36.4666 55.9465 35.2105V33.8932H53.2258V35.3203Z" fill="#131313"/>
<path d="M57.4531 18.5036C58.1772 18.5341 58.8927 18.3529 59.4921 17.9873C60.0576 17.5716 60.4594 17.004 60.6384 16.3682C60.9158 15.4397 61.0423 14.4803 61.014 13.5194V2.35205H63.9408V13.3619C63.992 14.8422 63.7745 16.3201 63.2969 17.7378C62.9642 18.7413 62.2584 19.6123 61.297 20.2059C60.2284 20.7756 58.9974 21.0524 57.7556 21.0023H57.4678L57.4531 18.5036ZM62.8189 2.35205H72.7797V4.83758H62.8286L62.8189 2.35205ZM71.2334 2.35205H74.1602V20.9935H71.2334V2.35205Z" fill="#131313"/>
<path d="M83.042 2.19336H85.3092L92.2887 20.9H89.4258L84.1756 5.80733L78.9254 20.9H76.0625L83.042 2.19336ZM79.2766 14.2999H89.2435V16.7942H79.2766V14.2999Z" fill="#131313"/>
<path d="M33.1971 31.4344L37.9494 23.4204H40.9323L34.6775 33.5466L29.5962 42.127H26.6133L33.1971 31.4344ZM33.3127 33.9066L32.9082 33.2611L26.76 23.4204H29.7429L34.3174 31.0348L34.7619 31.7286L41.2346 42.127H38.2339L33.3127 33.9066Z" fill="#131313"/>
<path d="M57.4673 39.6284H73.8891V42.127H57.4673V39.6284ZM57.4673 39.6284H60.1347V45.9957H57.4673V39.6284ZM57.4673 39.6284H57.5829C58.0868 39.6462 58.5866 39.5341 59.0333 39.3031C59.4799 39.0721 59.858 38.7302 60.1302 38.311C60.7229 37.4328 61.0193 36.2032 61.0193 34.6224V23.4204H63.6866V34.8376C63.7196 36.0442 63.4844 37.2434 62.9976 38.3506C62.5754 39.2752 61.8774 40.0504 60.9971 40.5725C60.0344 41.1047 58.9435 41.3688 57.8408 41.3366H57.4629L57.4673 39.6284ZM62.6864 23.4204H71.2707V25.9146H62.6997L62.6864 23.4204ZM69.8659 23.4204H72.5332V42.127H69.8659V23.4204ZM72.4043 39.6284H75.0716V45.9957H72.4043V39.6284Z" fill="#131313"/>
<path d="M89.278 42.1194V27.4495L89.6341 27.7825L78.7852 42.1194H76.293V23.4722H79.2938V38.3654L78.9378 38.0325L89.8273 23.4809H92.2891V42.1282L89.278 42.1194Z" fill="#131313"/>
</svg>
