<svg width="127" height="64" viewBox="0 0 127 64" fill="none" xmlns="http://www.w3.org/2000/svg">
<path d="M6.32422 2.26367H9.92949V27.7727H6.32422V2.26367ZM8.40326 24.3655H31.5191V27.7727H8.40326V24.3655ZM18.0534 2.26367H21.6587V27.7727H18.0534V2.26367ZM29.7765 2.26367H33.3818V27.7727H29.7765V2.26367Z" fill="#131313"/>
<path d="M35.3789 2.26344H38.9842V27.7724H35.3789V2.26344ZM37.1215 13.4012H45.1312V16.8084H37.1215V13.4012ZM41.9645 16.5329L45.1131 14.6886L54.9916 27.7604H50.0103L41.9645 16.5329ZM41.9645 13.7604L49.3914 2.25146H53.898L43.7792 16.8982L41.9645 13.7604Z" fill="#131313"/>
<path d="M60.6041 11.2816C60.5827 10.2339 60.8092 9.19594 61.265 8.25164C61.6753 7.41625 62.3176 6.71585 63.1157 6.23368C63.9724 5.76986 64.9319 5.52689 65.9068 5.52689C66.8818 5.52689 67.8412 5.76986 68.6979 6.23368C69.5009 6.71353 70.1477 7.41426 70.5606 8.25164C71.0165 9.19594 71.2429 10.2339 71.2216 11.2816V12.3774H74.899V11.4013C74.9356 9.69043 74.5519 7.99655 73.7813 6.46721C73.0746 5.08281 71.9756 3.93559 70.6207 3.16781C69.1674 2.40124 67.5481 2.00049 65.9038 2.00049C64.2595 2.00049 62.6402 2.40124 61.1869 3.16781C59.832 3.93559 58.733 5.08281 58.0263 6.46721C57.2557 7.99655 56.872 9.69043 56.9086 11.4013V12.3774H60.586L60.6041 11.2816Z" fill="#131313"/>
<path d="M60.6032 12.3774H56.9258V45.4852H60.6032V12.3774Z" fill="#131313"/>
<path d="M74.9118 12.3774H71.2344V45.4852H74.9118V12.3774Z" fill="#131313"/>
<path d="M71.2393 47.4373C71.2559 48.473 71.0296 49.4982 70.5784 50.4313C70.168 51.2704 69.5206 51.9718 68.7156 52.4493C67.8602 52.9168 66.9002 53.1619 65.9246 53.1619C64.9489 53.1619 63.9889 52.9168 63.1335 52.4493C62.3263 51.9727 61.6767 51.2713 61.2647 50.4313C60.8135 49.4982 60.5872 48.473 60.6038 47.4373V45.4912H56.9264V47.2876C56.8893 49.0005 57.2729 50.6964 58.044 52.2277C58.7525 53.6109 59.851 54.7576 61.2046 55.5271C62.6579 56.2937 64.2772 56.6944 65.9215 56.6944C67.5658 56.6944 69.1852 56.2937 70.6385 55.5271C71.992 54.7576 73.0906 53.6109 73.7991 52.2277C74.5701 50.6964 74.9538 49.0005 74.9167 47.2876V45.4912H71.2393V47.4373Z" fill="#131313"/>
<path d="M76.9531 24.5048C77.9318 24.5465 78.899 24.2994 79.7091 23.8007C80.4734 23.2339 81.0165 22.4599 81.2585 21.5929C81.6335 20.3268 81.8044 19.0185 81.7662 17.7082V2.47998H85.7222V17.4934C85.7914 19.512 85.4975 21.5274 84.8519 23.4606C84.4021 24.829 83.4481 26.0167 82.1486 26.8261C80.7043 27.603 79.0404 27.9805 77.3619 27.9121H76.9729L76.9531 24.5048ZM84.2057 2.47998H97.6692V5.86934H84.2189L84.2057 2.47998ZM95.5792 2.47998H99.5352V27.9002H95.5792V2.47998Z" fill="#131313"/>
<path d="M111.541 2.26367H114.606L124.04 27.7727H120.17L113.073 7.19182L105.977 27.7727H102.107L111.541 2.26367ZM106.452 18.7727H119.924V22.1739H106.452V18.7727Z" fill="#131313"/>
<path d="M44.1686 42.1376L50.592 31.2095H54.6239L46.1695 45.0179L39.3014 56.7185H35.2695L44.1686 42.1376ZM44.3248 45.5089L43.778 44.6286L35.4678 31.2095H39.4997L45.6828 41.5927L46.2837 42.5388L55.0325 56.7185H50.9765L44.3248 45.5089Z" fill="#131313"/>
<path d="M76.9728 53.3113H99.1693V56.7185H76.9728V53.3113ZM76.9728 53.3113H80.5781V61.9939H76.9728V53.3113ZM76.9728 53.3113H77.129C77.8101 53.3356 78.4857 53.1827 79.0894 52.8677C79.6931 52.5527 80.2041 52.0865 80.5721 51.5149C81.3732 50.3173 81.7738 48.6406 81.7738 46.4849V31.2095H85.3791V46.7783C85.4236 48.4238 85.1057 50.059 84.4477 51.5688C83.8771 52.8296 82.9337 53.8867 81.7438 54.5987C80.4425 55.3244 78.968 55.6845 77.4775 55.6406H76.9668L76.9728 53.3113ZM84.0271 31.2095H95.6301V34.6107H84.0452L84.0271 31.2095ZM93.7313 31.2095H97.3366V56.7185H93.7313V31.2095ZM97.1623 53.3113H100.768V61.9939H97.1623V53.3113Z" fill="#131313"/>
<path d="M119.969 56.7078V36.7035L120.45 37.1575L105.787 56.7078H102.418V31.2798H106.474V51.5888L105.993 51.1348L120.712 31.2917H124.039V56.7198L119.969 56.7078Z" fill="#131313"/>
</svg>
