<svg width="36" height="36" viewBox="0 0 36 36" fill="none" xmlns="http://www.w3.org/2000/svg">
<g id="Frame">
<g id="Group">
<path id="Vector" d="M8.84752 11.996C8.89901 11.9986 8.95091 12 9.0022 12C10.5996 12 11.9147 10.7492 11.9961 9.15246C12.0802 7.5004 10.8046 6.08795 9.15246 6.00401C9.10117 6.0014 9.04908 6 8.99779 6C7.40017 6 6.08506 7.25077 6.00392 8.84754C5.91997 10.4996 7.19541 11.912 8.84752 11.996ZM6.77307 8.8866C6.83358 7.69975 7.8107 6.77013 8.99779 6.77013C9.03605 6.77013 9.07492 6.77114 9.11339 6.77314C10.3414 6.83565 11.2894 7.88547 11.2269 9.1134C11.1664 10.3003 10.1893 11.2299 9.0022 11.2299C8.96393 11.2299 8.92506 11.2289 8.88659 11.2269C7.65883 11.1644 6.71076 10.1145 6.77307 8.8866Z" fill="black"/>
<path id="Vector_2" d="M30.8463 12.5224C30.6727 12.3904 30.4223 12.4208 30.2869 12.5902L27.0424 16.6573C26.9448 16.7796 26.8595 16.8842 26.7841 16.9765C26.5036 17.3201 26.3491 17.5094 26.2735 17.7579C26.1968 18.0091 26.2229 18.2435 26.2699 18.6693C26.2842 18.7978 26.3002 18.9433 26.3168 19.1168C26.3458 19.4206 26.3806 19.6612 26.4086 19.8543C26.4242 19.9624 26.4412 20.0796 26.4493 20.165C26.3344 20.1733 26.1565 20.1747 25.9828 20.1759C25.8814 20.1767 25.7664 20.1775 25.6395 20.1796C24.922 20.1909 24.525 20.2217 24.2088 20.3666C23.8767 20.5188 23.6973 20.7614 23.4392 21.1247C23.4579 20.9315 23.439 20.7347 23.3812 20.5431C23.264 20.1547 23.0018 19.8331 22.6417 19.6339C22.6214 19.6171 22.599 19.6019 22.5747 19.589L18.8689 17.6136C18.8689 17.6136 18.8687 17.6136 18.8687 17.6134C18.4707 17.3855 18.0185 17.2874 17.5587 17.3295C17.5572 17.3297 17.5558 17.3297 17.5543 17.3299C17.5522 17.3301 17.5502 17.3301 17.5483 17.3303C17.5429 17.3309 17.5377 17.3319 17.5323 17.3325C17.527 17.3333 17.5216 17.3335 17.516 17.3345L14.043 17.9506L13.4484 16.414L15.8464 13.7862L16.8919 13.5987C16.9935 13.5805 17.0787 13.5259 17.1366 13.4516C17.4171 13.3061 17.6414 13.0776 17.7799 12.7922C17.9503 12.4413 17.9706 12.0466 17.8371 11.6809C17.7168 11.3513 17.4787 11.0751 17.1666 10.9031C17.1405 10.8887 17.114 10.8753 17.087 10.8626L20.43 2.53105C20.5103 2.33109 20.4093 2.10522 20.2043 2.02689C19.9994 1.94857 19.7681 2.04713 19.6878 2.2473L16.2874 10.7227C16.2426 10.727 16.1978 10.7335 16.1533 10.7418L10.2717 11.6612H10.2713C9.91675 11.7153 9.58173 11.8353 9.27572 12.0178C8.59925 12.4214 8.1587 13.0733 8.02228 13.793L5.97814 16.9589C5.97606 16.9619 5.97461 16.9651 5.97275 16.9684C5.97088 16.9716 5.9686 16.9745 5.96673 16.9777C5.96383 16.983 5.96114 16.9884 5.95803 16.9937C5.74615 17.3752 5.67338 17.819 5.75382 18.2461V18.2469L6.42677 21.7896V21.7908C6.49477 22.1509 6.69172 22.4668 6.98508 22.6903C6.90505 23.2756 6.87851 23.8852 6.85094 24.5268C6.76947 26.4127 6.68529 28.3627 5.14182 29.6321C4.97348 29.7706 4.95192 30.0161 5.09372 30.1802C5.1725 30.2715 5.28528 30.3187 5.39868 30.3187C5.48928 30.3187 5.5805 30.2887 5.65514 30.2272C7.46667 28.7374 7.56245 26.5179 7.64704 24.5596C7.67067 24.0125 7.69348 23.4895 7.74945 22.9969C7.80543 23.003 7.86182 23.0062 7.91842 23.0062C8.01067 23.0062 8.10355 22.9979 8.19602 22.9813C8.59531 22.9098 8.94236 22.6907 9.1729 22.3644C9.40343 22.0381 9.49009 21.6437 9.4167 21.2539C9.41649 21.2527 9.41608 21.2516 9.41587 21.2504L9.41525 21.2468L9.34518 20.91L10.1813 19.9938L10.467 20.6643C10.4674 20.6651 10.4676 20.6657 10.468 20.6663C10.5087 20.7655 10.5578 20.8613 10.6148 20.9525C10.842 21.3156 11.1853 21.5917 11.5904 21.7412C11.6918 21.8691 11.7975 21.9969 11.9082 22.1302C12.3805 22.6992 12.8687 23.2875 12.9931 23.9066L13.3474 28.9333C13.3454 28.9523 13.3443 28.9715 13.3452 28.9912C13.3568 29.2483 13.4349 29.4983 13.5724 29.718C13.7894 30.0645 14.1315 30.3079 14.536 30.4031C14.6565 30.4316 14.7801 30.446 14.9042 30.4462C15.1874 30.4462 15.466 30.3703 15.7138 30.2223C16.1379 29.9693 16.413 29.5275 16.4537 29.0478C16.464 29.0142 16.4701 28.9788 16.4707 28.942L16.559 23.4642C16.559 23.4614 16.5588 23.4585 16.5588 23.4555C16.5588 23.4531 16.559 23.4506 16.559 23.4482C16.5389 22.6641 16.3067 22.1796 15.9644 21.6931C15.9634 21.6914 15.9619 21.69 15.9609 21.6886C15.9567 21.6829 15.9524 21.6777 15.948 21.6722C15.9437 21.667 15.9393 21.6615 15.9348 21.6564C15.9335 21.655 15.9323 21.6534 15.931 21.652L15.5089 21.1978L17.6824 20.8382C17.6994 20.8353 17.7158 20.8313 17.7318 20.8264C17.7527 20.8252 17.7737 20.823 17.7948 20.8183C17.9712 20.7802 18.1557 20.8085 18.3117 20.8975C18.3139 20.8989 18.3164 20.8999 18.3187 20.9011C18.3301 20.9086 18.3419 20.9155 18.3542 20.9219L21.1146 22.3512C21.1384 22.3636 21.1629 22.3731 21.1878 22.3804C21.3998 22.4777 21.6279 22.5271 21.8578 22.5271C22.0081 22.5271 22.1593 22.5061 22.3075 22.4634C22.3489 22.4514 22.3896 22.4377 22.4296 22.4227C22.3398 22.5298 22.2571 22.6273 22.1816 22.7162C21.7065 23.276 21.4446 23.5844 21.3001 24.0637C21.16 24.528 21.1536 25.0963 21.1538 26.1439C21.1538 26.4625 21.1639 26.7213 21.1722 26.9294C21.1789 27.098 21.1857 27.2708 21.1801 27.3742C21.0598 27.3773 20.8471 27.3621 20.6402 27.3471C20.4814 27.3356 20.3013 27.3226 20.0902 27.3107L20.0154 27.3064C19.3265 27.2676 18.9807 27.2482 18.6834 27.3516C18.3434 27.4698 18.1659 27.7147 17.8972 28.0855C17.7795 28.2482 17.6327 28.4506 17.4347 28.6989L13.708 33.3718C13.5728 33.5414 13.6039 33.7857 13.7774 33.9178C13.8502 33.9731 13.9364 34 14.022 34C14.1406 34 14.2582 33.9484 14.3368 33.85L18.0639 29.178C18.2733 28.9157 18.4259 28.705 18.5484 28.5358C18.7619 28.2409 18.8525 28.1199 18.951 28.0857C19.0961 28.0353 19.4252 28.0537 19.97 28.0844L20.045 28.0887C20.2497 28.1002 20.4261 28.113 20.5818 28.1243C21.1844 28.1678 21.5164 28.1919 21.7616 27.9608C22.0019 27.7343 21.9897 27.4206 21.9691 26.9006C21.9613 26.6993 21.9513 26.4485 21.9513 26.1449C21.9511 25.1143 21.9619 24.627 22.0651 24.2847C22.1634 23.9589 22.3616 23.7253 22.7959 23.2138C22.992 22.9829 23.2359 22.6955 23.5288 22.3286C23.7645 22.0333 23.9335 21.7951 24.0691 21.6038C24.3035 21.2735 24.4043 21.1369 24.5471 21.0715C24.7298 20.9879 25.0764 20.9671 25.6523 20.9582C25.7759 20.9561 25.8891 20.9553 25.989 20.9545C26.5849 20.9499 26.8838 20.9476 27.0971 20.706C27.3028 20.473 27.2611 20.1838 27.1979 19.7462C27.1711 19.561 27.1378 19.3305 27.1104 19.0449C27.0932 18.8658 27.0768 18.7173 27.0623 18.5863C27.0262 18.2609 27.0065 18.0818 27.0372 17.9806C27.0689 17.8767 27.1892 17.7294 27.4075 17.4618C27.484 17.3679 27.5709 17.2617 27.6712 17.136L30.9159 13.0689C31.0511 12.8989 31.02 12.6546 30.8463 12.5224ZM13.1304 15.5929L12.6525 14.3583L14.5704 14.0147L13.1304 15.5929ZM8.51736 21.9228C8.40769 22.078 8.24266 22.1822 8.05276 22.2162C7.86286 22.2502 7.67067 22.2102 7.51166 22.1029C7.35265 21.9958 7.24588 21.8347 7.21105 21.6493V21.6487L6.5381 18.106C6.49042 17.8524 6.53395 17.5885 6.66042 17.3624L8.11641 15.1074C8.11765 15.1106 8.11889 15.1141 8.12035 15.1173C8.1247 15.1517 8.13341 15.1861 8.14771 15.2197L8.80677 16.7664L8.22276 17.6875C8.05131 17.9356 7.98435 18.2449 8.03991 18.5396C8.04011 18.5408 8.04053 18.5418 8.04074 18.5428L8.04136 18.5467L8.63408 21.3964C8.66808 21.5809 8.62682 21.7679 8.51736 21.9228ZM9.14781 19.9573L8.82336 18.3975C8.80532 18.3001 8.82833 18.1979 8.88659 18.117C8.88742 18.116 8.88783 18.1147 8.88866 18.1137C8.89219 18.1087 8.89571 18.1036 8.89903 18.0984L9.18347 17.6498L9.84232 19.1961L9.14781 19.9573ZM15.3228 22.1553C15.5894 22.5383 15.7467 22.8797 15.7625 23.4624L15.676 28.8212C15.6673 28.8533 15.6623 28.8869 15.6625 28.9219C15.6638 29.1802 15.5243 29.4241 15.2985 29.5589C15.1252 29.6623 14.9208 29.6937 14.7234 29.6471C14.5258 29.6006 14.3587 29.4818 14.2528 29.3126C14.2016 29.2306 14.1672 29.1397 14.1514 29.045C14.1522 29.0292 14.1525 29.0132 14.1514 28.997L13.7872 23.8285C13.7872 23.8279 13.787 23.8273 13.787 23.8267C13.7865 23.8202 13.7853 23.8135 13.7845 23.8071C13.7836 23.8002 13.7828 23.7933 13.7818 23.7866C13.7816 23.786 13.7816 23.7854 13.7816 23.7848C13.6302 22.9837 13.0709 22.295 12.5656 21.686L14.577 21.353L15.3228 22.1553ZM22.083 21.7178C21.881 21.7758 21.6681 21.7536 21.483 21.655C21.4681 21.6471 21.4538 21.6388 21.4401 21.6303C21.4065 21.6096 21.3701 21.5938 21.3318 21.5834L18.7282 20.235C18.7234 20.232 18.7188 20.2287 18.7138 20.2259C18.3838 20.0379 17.9967 19.9786 17.6236 20.0587C17.6136 20.061 17.6043 20.0636 17.5947 20.0664C17.5798 20.0672 17.5649 20.0686 17.5498 20.0711L11.8676 21.0114C11.6296 20.9223 11.4285 20.7588 11.2956 20.5465C11.2608 20.4908 11.2309 20.4323 11.2063 20.3716C11.2058 20.3704 11.2052 20.3694 11.2048 20.3684C11.2044 20.3672 11.204 20.3662 11.2036 20.365L8.88327 14.9204C8.88307 14.9198 8.88265 14.9192 8.88244 14.9187C8.87954 14.8947 8.87436 14.8706 8.86648 14.8465C8.77526 14.568 8.7537 14.282 8.79433 14.008C8.79661 13.9973 8.79827 13.9865 8.79952 13.9756C8.88659 13.4516 9.2013 12.9742 9.6916 12.6817C9.90825 12.5526 10.1452 12.4676 10.3961 12.4295C10.3963 12.4295 10.3967 12.4293 10.3969 12.4293C10.3973 12.4293 10.3975 12.4293 10.3979 12.4291L16.2808 11.5094C16.2839 11.509 16.2868 11.508 16.2897 11.5076C16.2922 11.5072 16.2945 11.507 16.2969 11.5066C16.6324 11.4402 16.9718 11.6272 17.0868 11.9419C17.149 12.112 17.1395 12.2953 17.0603 12.4585C16.9811 12.6216 16.8416 12.7448 16.6672 12.8054C16.6345 12.8169 16.6 12.826 16.5654 12.8325C16.5107 12.8428 16.4609 12.8636 16.4174 12.8924L11.2604 13.8165C11.0439 13.8554 10.9007 14.058 10.9403 14.2695C10.9755 14.4571 11.1432 14.5882 11.3317 14.5882C11.3555 14.5882 11.3798 14.5862 11.404 14.5818L11.856 14.5008L13.4082 18.5112C13.4451 18.6068 13.5164 18.6794 13.6031 18.7217C13.6634 18.7567 13.7333 18.7768 13.8062 18.7768C13.8299 18.7768 13.8539 18.7747 13.878 18.7705L17.6393 18.1032C17.9325 18.0777 18.2208 18.1417 18.474 18.2888C18.4769 18.2904 18.4798 18.2918 18.4827 18.2935C18.4841 18.2943 18.4856 18.2953 18.487 18.2961L22.1261 20.2358C22.151 20.2565 22.1783 20.2747 22.209 20.2893C22.219 20.2939 22.2287 20.299 22.2382 20.304C22.423 20.4024 22.5575 20.5651 22.617 20.7623C22.6765 20.9594 22.6537 21.1672 22.5529 21.3478C22.4516 21.5285 22.2849 21.6599 22.083 21.7178Z" fill="black"/>
</g>
</g>
</svg>
