<svg width="425" height="425" viewBox="0 0 425 425" fill="none" xmlns="http://www.w3.org/2000/svg">
<g clip-path="url(#clip0_273_3088)">
<path d="M21.3011 297.409C19.8672 297.408 18.4569 297.043 17.2027 296.348C15.9484 295.653 14.8914 294.651 14.1307 293.436C13.3701 292.22 12.9308 290.831 12.8542 289.399C12.7775 287.967 13.066 286.539 13.6925 285.25C23.7547 264.555 28.914 242.758 29.433 218.708C10.4296 195.312 0 165.971 0 135.726C0 63.1022 59.0827 4.01953 131.706 4.01953C204.328 4.01953 263.411 63.1022 263.411 135.725C263.411 153.494 259.924 170.753 253.047 187.021C251.228 191.323 246.268 193.34 241.961 191.519C237.658 189.7 235.643 184.736 237.464 180.433C243.454 166.26 246.492 151.218 246.492 135.724C246.492 72.4304 194.999 20.9377 131.706 20.9377C68.4117 20.9377 16.919 72.4321 16.919 135.726C16.919 163.027 26.6671 189.477 44.3658 210.205C45.6838 211.748 46.4032 213.714 46.3926 215.743C46.2826 236.683 42.8368 256.7 36.129 275.471C56.1568 268.62 71.9032 260.511 86.7801 246.482C87.8934 245.433 89.2702 244.705 90.7641 244.376C92.2579 244.047 93.8131 244.128 95.2642 244.612C106.988 248.528 119.249 250.513 131.706 250.513C152.351 250.513 172.576 244.981 190.197 234.515C194.214 232.13 199.404 233.453 201.79 237.468C204.176 241.485 202.854 246.676 198.837 249.061C178.604 261.079 155.391 267.432 131.706 267.432C119.108 267.432 106.679 265.659 94.6893 262.158C74.4202 279.951 52.2614 288.826 23.6446 297.079C22.8708 297.3 22.0817 297.409 21.3011 297.409Z" fill="#1D7D74"/>
<path fill-rule="evenodd" clip-rule="evenodd" d="M425.001 341.705V194.578C425.001 183.201 415.688 173.889 404.288 173.889H201.214C189.837 173.889 180.525 183.201 180.525 194.578V341.705C180.525 353.106 189.837 362.394 201.214 362.394H306.243C329.644 400.725 350.405 411.213 384.319 420.981C375.942 403.724 371.406 384.379 371.79 362.394H404.288C415.689 362.394 425.001 353.104 425.001 341.705Z" fill="#E3F9F7"/>
<path d="M131.442 205.772C126.77 205.772 122.983 202.009 122.983 197.336V197.288C122.983 192.616 126.771 188.829 131.442 188.829C136.114 188.829 139.902 192.616 139.902 197.288C139.902 201.96 136.114 205.772 131.442 205.772ZM131.442 166.506C126.77 166.506 122.983 162.719 122.983 158.047V127.302C122.983 122.629 126.771 118.842 131.442 118.842C137.226 118.842 142.61 116.524 146.605 112.314C150.598 108.106 152.629 102.591 152.324 96.7833C151.76 85.8999 142.775 77.2034 131.87 76.9807C121.243 76.7233 112.167 84.5022 110.708 94.9851C110.57 95.9588 110.501 96.9411 110.501 97.9246C110.501 102.597 106.713 106.384 102.042 106.384C97.3698 106.384 93.582 102.596 93.582 97.9246C93.582 96.1365 93.7073 94.351 93.9562 92.6196C96.5528 73.9413 112.59 60.0566 131.425 60.0566C131.689 60.0566 131.952 60.06 132.218 60.0651C151.945 60.4681 168.2 76.2086 169.221 95.902C169.772 106.385 166.099 116.351 158.879 123.96C153.737 129.379 147.089 133.129 139.903 134.792V158.048C139.902 162.719 136.114 166.506 131.442 166.506ZM345.125 318.961C344.014 318.962 342.914 318.744 341.888 318.319C340.861 317.894 339.929 317.27 339.145 316.484L302.763 280.114L266.381 316.485C263.077 319.787 257.721 319.787 254.417 316.483C251.114 313.18 251.116 307.823 254.419 304.519L290.797 268.152L254.419 231.785C251.116 228.482 251.115 223.125 254.417 219.821C257.721 216.518 263.078 216.517 266.381 219.819L302.763 256.19L339.145 219.819C342.448 216.516 347.805 216.516 351.108 219.821C354.411 223.125 354.41 228.481 351.107 231.785L314.729 268.152L351.107 304.519C354.41 307.822 354.411 313.18 351.108 316.483C350.323 317.27 349.391 317.894 348.364 318.319C347.337 318.744 346.236 318.963 345.125 318.961Z" fill="#1D7D74"/>
</g>
<defs>
<clipPath id="clip0_273_3088">
<rect width="425" height="425" fill="white"/>
</clipPath>
</defs>
</svg>
