<svg width="58" height="28" viewBox="0 0 58 28" fill="none" xmlns="http://www.w3.org/2000/svg">
<g id="logo 2">
<path id="Vector" d="M2.03906 0.123047H3.73911V12.0272H2.03906V0.123047ZM3.01942 10.4372H13.9196V12.0272H3.01942V10.4372ZM7.56989 0.123047H9.26994V12.0272H7.56989V0.123047ZM13.0979 0.123047H14.7979V12.0272H13.0979V0.123047Z" fill="#1D1D1B"/>
<path id="Vector_2" d="M15.7402 0.12302H17.4403V12.0272H15.7402V0.12302ZM16.5619 5.32062H20.3389V6.91065H16.5619V5.32062ZM18.8457 6.7821L20.3304 5.92142L24.9885 12.0216H22.6396L18.8457 6.7821ZM18.8457 5.48829L22.3478 0.117432H24.4728L19.7014 6.95256L18.8457 5.48829Z" fill="#1D1D1B"/>
<path id="Vector_3" d="M27.6343 4.33142C27.6243 3.84251 27.731 3.35812 27.946 2.91745C28.1394 2.5276 28.4423 2.20074 28.8187 1.97573C29.2226 1.75928 29.6751 1.6459 30.1348 1.6459C30.5945 1.6459 31.047 1.75928 31.4509 1.97573C31.8295 2.19966 32.1346 2.52667 32.3293 2.91745C32.5442 3.35812 32.651 3.84251 32.641 4.33142V4.8428H34.375V4.38731C34.3923 3.58888 34.2113 2.7984 33.848 2.08471C33.5147 1.43866 32.9965 0.903293 32.3576 0.544994C31.6723 0.18726 30.9087 0.000244141 30.1334 0.000244141C29.358 0.000244141 28.5944 0.18726 27.9091 0.544994C27.2702 0.903293 26.752 1.43866 26.4188 2.08471C26.0554 2.7984 25.8745 3.58888 25.8918 4.38731V4.8428H27.6258L27.6343 4.33142Z" fill="black"/>
<path id="Vector_4" d="M27.6343 4.84277H25.9003V20.2931H27.6343V4.84277Z" fill="black"/>
<path id="Vector_5" d="M34.3805 4.84277H32.6465V20.2931H34.3805V4.84277Z" fill="black"/>
<path id="Vector_6" d="M32.6488 21.2041C32.6566 21.6874 32.5499 22.1658 32.3371 22.6013C32.1436 22.9929 31.8383 23.3202 31.4588 23.543C31.0554 23.7612 30.6027 23.8756 30.1426 23.8756C29.6826 23.8756 29.2299 23.7612 28.8265 23.543C28.4459 23.3206 28.1396 22.9933 27.9453 22.6013C27.7326 22.1658 27.6258 21.6874 27.6336 21.2041V20.2959H25.8996V21.1342C25.8821 21.9336 26.063 22.725 26.4266 23.4396C26.7607 24.0851 27.2787 24.6203 27.917 24.9793C28.6023 25.3371 29.3659 25.5241 30.1412 25.5241C30.9166 25.5241 31.6802 25.3371 32.3655 24.9793C33.0037 24.6203 33.5217 24.0851 33.8558 23.4396C34.2194 22.725 34.4003 21.9336 34.3828 21.1342V20.2959H32.6488V21.2041Z" fill="black"/>
<path id="Vector_7" d="M35.3438 10.5024C35.8052 10.5218 36.2613 10.4065 36.6433 10.1738C37.0037 9.90926 37.2598 9.54811 37.3739 9.14346C37.5507 8.55265 37.6314 7.94208 37.6133 7.33063V0.224121H39.4788V7.23039C39.5114 8.1724 39.3728 9.1129 39.0684 10.0151C38.8563 10.6537 38.4064 11.2079 37.7937 11.5856C37.1126 11.9482 36.328 12.1244 35.5365 12.0924H35.3531L35.3438 10.5024ZM38.7637 0.224121H45.1123V1.80582H38.7699L38.7637 0.224121ZM44.1268 0.224121H45.9922V12.0869H44.1268V0.224121Z" fill="#1D1D1B"/>
<path id="Vector_8" d="M51.6535 0.123047H53.0986L57.547 12.0272H55.7223L52.3761 2.42285L49.0298 12.0272H47.2051L51.6535 0.123047ZM49.2536 7.82724H55.6062V9.41446H49.2536V7.82724Z" fill="#1D1D1B"/>
<path id="Vector_9" d="M19.8838 18.7309L22.9127 13.6311H24.8139L20.8273 20.075L17.5887 25.5353H15.6875L19.8838 18.7309ZM19.9575 20.3042L19.6996 19.8934L15.781 13.6311H17.6822L20.5978 18.4766L20.8812 18.9181L25.0066 25.5353H23.094L19.9575 20.3042Z" fill="#1D1D1B"/>
<path id="Vector_10" d="M35.3524 23.9453H45.8191V25.5353H35.3524V23.9453ZM35.3524 23.9453H37.0525V27.9972H35.3524V23.9453ZM35.3524 23.9453H35.4261C35.7472 23.9566 36.0658 23.8853 36.3505 23.7383C36.6352 23.5913 36.8762 23.3737 37.0497 23.107C37.4274 22.5481 37.6163 21.7656 37.6163 20.7596V13.6311H39.3164V20.8966C39.3374 21.6644 39.1875 22.4275 38.8772 23.1321C38.6081 23.7205 38.1633 24.2138 37.6022 24.5461C36.9886 24.8847 36.2933 25.0528 35.5904 25.0323H35.3496L35.3524 23.9453ZM38.6789 13.6311H44.1502V15.2183H38.6874L38.6789 13.6311ZM43.2548 13.6311H44.9549V25.5353H43.2548V13.6311ZM44.8727 23.9453H46.5728V27.9972H44.8727V23.9453Z" fill="#1D1D1B"/>
<path id="Vector_11" d="M55.6278 25.5305V16.1951L55.8547 16.407L48.94 25.5305H47.3516V13.6641H49.2642V23.1416L49.0373 22.9297L55.9779 13.6696H57.5469V25.5361L55.6278 25.5305Z" fill="#1D1D1B"/>
</g>
</svg>
