<svg width="36" height="36" viewBox="0 0 36 36" fill="none" xmlns="http://www.w3.org/2000/svg">
<g id="Frame">
<g id="Group">
<path id="Vector" d="M4.52822 2C4.38813 2 4.25377 2.05619 4.15471 2.15621C4.05565 2.25623 4 2.39188 4 2.53333V15.0667C4 15.5617 4.19478 16.0365 4.54149 16.3866C4.88821 16.7367 5.35845 16.9333 5.84878 16.9333H12.7157C13.1868 16.9342 13.6404 16.753 13.9835 16.4269C14.3266 16.1008 14.5331 15.6546 14.5607 15.1797C14.5684 14.9203 14.5239 14.662 14.4301 14.4204C14.3362 14.1788 14.1949 13.9589 14.0146 13.7739C13.8343 13.5889 13.6188 13.4427 13.381 13.3441C13.1432 13.2454 12.8882 13.1964 12.6311 13.2H8.48988C8.38567 13.2006 8.28238 13.1803 8.186 13.1403C8.08961 13.1003 8.00205 13.0414 7.92838 12.9669C7.81748 12.8476 7.74482 12.6973 7.71989 12.5357C7.69496 12.374 7.71894 12.2085 7.78867 12.0608C7.85841 11.9132 7.97067 11.7902 8.11076 11.7079C8.25085 11.6257 8.41226 11.5881 8.57387 11.6H12.7157C13.1868 11.6008 13.6404 11.4196 13.9835 11.0936C14.3266 10.7675 14.5331 10.3213 14.5607 9.8464C14.5684 9.58698 14.5239 9.32868 14.4301 9.08707C14.3362 8.84546 14.1949 8.62554 14.0146 8.44055C13.8343 8.25557 13.6188 8.10936 13.381 8.01073C13.1432 7.9121 12.8882 7.8631 12.6311 7.86667H11.6592C11.5077 7.86976 11.3586 7.82775 11.2306 7.74587C11.1026 7.66399 11.0013 7.54587 10.9393 7.40624C10.8774 7.26661 10.8575 7.11165 10.8822 6.96068C10.9069 6.80972 10.975 6.66944 11.0782 6.55733C11.1638 6.46582 11.2669 6.39285 11.3813 6.34288C11.4958 6.29291 11.6191 6.26698 11.7437 6.26667H16.6773V21.696C16.6772 21.7668 16.6632 21.8369 16.636 21.9022C16.6088 21.9675 16.569 22.0267 16.5189 22.0763L10.4285 28.2256C10.1364 28.5156 9.93545 28.8861 9.85059 29.2907C9.76573 29.6954 9.80074 30.1163 9.95126 30.5009C10.1018 30.8856 10.3612 31.217 10.697 31.4538C11.0329 31.6906 11.4304 31.8223 11.8399 31.8325C12.1452 31.8412 12.4491 31.7865 12.7328 31.6719C13.0164 31.5574 13.2738 31.3853 13.489 31.1664L17.8891 26.7237C17.9633 26.6502 18.0574 26.6005 18.1595 26.5808C18.2616 26.561 18.3672 26.5722 18.4631 26.6128C18.559 26.6534 18.6409 26.7217 18.6985 26.809C18.7561 26.8964 18.7869 26.999 18.787 27.104V27.3541C18.4569 27.6546 18.1926 28.0215 18.0112 28.4313C17.8298 28.841 17.7353 29.2845 17.7338 29.7333V30.8C17.7338 31.6487 18.0677 32.4626 18.662 33.0627C19.2564 33.6629 20.0625 34 20.9031 34C21.7437 34 22.5498 33.6629 23.1441 33.0627C23.7385 32.4626 24.0724 31.6487 24.0724 30.8V29.7333C24.0747 29.2838 23.9817 28.839 23.7994 28.4289C23.6172 28.0188 23.35 27.6529 23.016 27.3557C23.016 27.1099 22.9716 26.7643 23.3435 26.6091C23.4391 26.5674 23.545 26.5561 23.6472 26.5765C23.7493 26.597 23.8429 26.6483 23.9155 26.7237L28.3156 31.1664C28.5321 31.3836 28.7897 31.5545 29.073 31.669C29.3564 31.7834 29.6596 31.839 29.9647 31.8325C30.3744 31.8226 30.772 31.691 31.108 31.4542C31.4441 31.2175 31.7035 30.886 31.8541 30.5012C32.0047 30.1165 32.0396 29.6954 31.9546 29.2907C31.8696 28.886 31.6684 28.5156 31.3761 28.2256L25.2873 22.0763C25.2372 22.0267 25.1974 21.9675 25.1702 21.9022C25.143 21.8369 25.129 21.7668 25.1289 21.696V4.4C25.1292 3.90333 24.9764 3.41887 24.6917 3.01381C24.4071 2.60874 24.0046 2.30314 23.5402 2.13938C23.0758 1.97561 22.5724 1.9618 22.0999 2.09986C21.6274 2.23792 21.2091 2.52101 20.9031 2.90987C20.5971 2.52101 20.1788 2.23792 19.7063 2.09986C19.2337 1.9618 18.7304 1.97561 18.266 2.13938C17.8016 2.30314 17.3991 2.60874 17.1145 3.01381C16.8298 3.41887 16.677 3.90333 16.6773 4.4V5.2H11.7437C11.4868 5.19643 11.2318 5.24541 10.9941 5.34397C10.7564 5.44254 10.541 5.58865 10.3607 5.77352C10.1804 5.95839 10.039 6.17818 9.94511 6.41967C9.85118 6.66115 9.80663 6.91934 9.81414 7.17867C9.8414 7.65379 10.0478 8.10035 10.3909 8.42666C10.734 8.75297 11.1879 8.93427 11.6592 8.93333C12.6417 8.93333 12.9549 8.85867 13.2967 9.224C13.3998 9.33611 13.468 9.47639 13.4927 9.62735C13.5174 9.77831 13.4975 9.93327 13.4355 10.0729C13.3736 10.2125 13.2723 10.3307 13.1442 10.4125C13.0162 10.4944 12.8672 10.5364 12.7157 10.5333H8.57387C8.31689 10.5299 8.06188 10.579 7.82419 10.6777C7.58649 10.7764 7.37103 10.9226 7.19076 11.1076C7.0105 11.2925 6.86915 11.5124 6.77524 11.7539C6.68132 11.9955 6.63677 12.2537 6.64428 12.5131C6.67181 12.9881 6.87838 13.4345 7.22158 13.7606C7.56479 14.0867 8.01861 14.2678 8.48988 14.2667H12.6311C12.8826 14.2677 13.1229 14.3728 13.2956 14.5573C13.3987 14.6694 13.4668 14.8096 13.4916 14.9604C13.5163 15.1113 13.4965 15.2661 13.4347 15.4057C13.3728 15.5453 13.2717 15.6635 13.1438 15.7454C13.016 15.8274 12.8671 15.8695 12.7157 15.8667H5.84878C5.63864 15.8667 5.4371 15.7824 5.28851 15.6324C5.13992 15.4823 5.05644 15.2788 5.05644 15.0667V2.53333C5.05644 2.39188 5.00079 2.25623 4.90173 2.15621C4.80267 2.05619 4.66831 2 4.52822 2ZM17.7338 13.7333H24.0724V14.8H17.7338V13.7333ZM24.0724 12.6667H21.4313V6.26667H24.0724V12.6667ZM20.3749 12.6667H17.7338V6.26667H20.3749V12.6667ZM23.016 30.8C23.016 31.3658 22.7934 31.9084 22.3971 32.3085C22.0009 32.7086 21.4635 32.9333 20.9031 32.9333C20.3427 32.9333 19.8053 32.7086 19.4091 32.3085C19.0128 31.9084 18.7902 31.3658 18.7902 30.8V29.7333C18.7902 29.1675 19.0128 28.6249 19.4091 28.2248C19.8053 27.8248 20.3427 27.6 20.9031 27.6C21.4635 27.6 22.0009 27.8248 22.3971 28.2248C22.7934 28.6249 23.016 29.1675 23.016 29.7333V30.8ZM30.6292 28.9797C30.8204 29.1723 30.9313 29.4316 30.939 29.7041C30.9468 29.9767 30.8509 30.2419 30.671 30.4453C30.5632 30.5498 30.4362 30.6319 30.297 30.6868C30.1578 30.7417 30.0093 30.7683 29.86 30.7653C29.7106 30.7622 29.5633 30.7294 29.4265 30.6689C29.2896 30.6083 29.166 30.5211 29.0625 30.4123L24.6624 25.9696C24.4632 25.7686 24.2144 25.6248 23.9417 25.5531C23.6691 25.4814 23.3825 25.4844 23.1114 25.5618C22.8403 25.6392 22.5945 25.7881 22.3994 25.9933C22.2043 26.1984 22.0668 26.4524 22.0013 26.7291C21.2916 26.4704 20.5146 26.4704 19.8049 26.7291C19.7394 26.4524 19.6019 26.1984 19.4068 25.9933C19.2117 25.7881 18.9659 25.6392 18.6948 25.5618C18.4237 25.4844 18.1371 25.4814 17.8644 25.5531C17.5918 25.6248 17.343 25.7686 17.1437 25.9696L12.7437 30.4123C12.6505 30.5161 12.538 30.6005 12.4125 30.6604C12.2871 30.7204 12.1512 30.7548 12.0126 30.7617C11.874 30.7687 11.7354 30.748 11.6047 30.7008C11.474 30.6537 11.3538 30.581 11.2509 30.4869C11.148 30.3929 11.0645 30.2793 11.0051 30.1526C10.9457 30.026 10.9116 29.8888 10.9048 29.7488C10.8979 29.6088 10.9184 29.4689 10.9651 29.3369C11.0118 29.205 11.0838 29.0836 11.1769 28.9797L17.2673 22.8304C17.4156 22.6819 17.5331 22.5051 17.6132 22.3104C17.6933 22.1157 17.7342 21.9068 17.7338 21.696V15.8667H24.0724V21.696C24.072 21.9068 24.1129 22.1157 24.193 22.3104C24.2731 22.5051 24.3906 22.6819 24.5388 22.8304L30.6292 28.9797ZM22.7519 3.06667C23.1021 3.06667 23.438 3.20714 23.6856 3.45719C23.9333 3.70724 24.0724 4.04638 24.0724 4.4V5.2H21.4313V4.4C21.4313 4.04638 21.5704 3.70724 21.8181 3.45719C22.0658 3.20714 22.4016 3.06667 22.7519 3.06667ZM17.7338 4.4C17.7338 4.04638 17.8729 3.70724 18.1205 3.45719C18.3682 3.20714 18.7041 3.06667 19.0543 3.06667C19.4046 3.06667 19.7404 3.20714 19.9881 3.45719C20.2357 3.70724 20.3749 4.04638 20.3749 4.4V5.2H17.7338V4.4Z" fill="black"/>
</g>
</g>
</svg>
